0,0,Header,0,1,480
1,0,Start_track
1,0,Channel_prefix,9
1,0,SMPTE_offset,33,0,0,0,0
1,0,Tempo,500000
1,120,Note_on_c,9,42,100
1,240,Note_off_c,9,42,0
1,240,Note_on_c,9,42,100
1,240,Note_on_c,9,35,100
1,360,Note_off_c,9,42,0
1,360,Note_off_c,9,35,0
1,720,Note_on_c,9,42,100
1,720,Note_on_c,9,35,100
1,840,Note_off_c,9,42,0
1,840,Note_off_c,9,35,0
1,840,Note_on_c,9,42,100
1,840,Note_on_c,9,35,100
1,840,Note_on_c,9,49,100
1,840,Note_on_c,9,50,100
1,960,Note_off_c,9,42,0
1,960,Note_off_c,9,35,0
1,960,Note_off_c,9,49,0
1,960,Note_off_c,9,50,0
1,960,Note_on_c,9,46,100
1,960,Note_on_c,9,35,100
1,960,Note_on_c,9,49,100
1,960,Note_on_c,9,50,100
1,1080,Note_off_c,9,46,0
1,1080,Note_off_c,9,35,0
1,1080,Note_off_c,9,49,0
1,1080,Note_off_c,9,50,0
1,1080,Note_on_c,9,42,100
1,1080,Note_on_c,9,46,100
1,1080,Note_on_c,9,35,100
1,1080,Note_on_c,9,49,100
1,1080,Note_on_c,9,50,100
1,1200,Note_off_c,9,42,0
1,1200,Note_off_c,9,46,0
1,1200,Note_off_c,9,35,0
1,1200,Note_off_c,9,49,0
1,1200,Note_off_c,9,50,0
1,1200,Note_on_c,9,42,100
1,1200,Note_on_c,9,46,100
1,1200,Note_on_c,9,49,100
1,1200,Note_on_c,9,50,100
1,1320,Note_off_c,9,42,0
1,1320,Note_off_c,9,46,0
1,1320,Note_off_c,9,49,0
1,1320,Note_off_c,9,50,0
1,1320,Note_on_c,9,42,100
1,1320,Note_on_c,9,46,100
1,1320,Note_on_c,9,49,100
1,1320,Note_on_c,9,50,100
1,1320,Note_on_c,9,43,100
1,1440,Note_off_c,9,42,0
1,1440,Note_off_c,9,46,0
1,1440,Note_off_c,9,49,0
1,1440,Note_off_c,9,50,0
1,1440,Note_off_c,9,43,0
1,1440,Note_on_c,9,46,100
1,1440,Note_on_c,9,49,100
1,1440,Note_on_c,9,50,100
1,1440,Note_on_c,9,43,100
1,1560,Note_off_c,9,46,0
1,1560,Note_off_c,9,49,0
1,1560,Note_off_c,9,50,0
1,1560,Note_off_c,9,43,0
1,1560,Note_on_c,9,46,100
1,1560,Note_on_c,9,43,100
1,1680,Note_off_c,9,46,0
1,1680,Note_off_c,9,43,0
1,1680,Note_on_c,9,46,100
1,1680,Note_on_c,9,43,100
1,1800,Note_off_c,9,46,0
1,1800,Note_off_c,9,43,0
1,1800,Note_on_c,9,46,100
1,1920,Note_off_c,9,46,0
1,1920,Note_on_c,9,46,100
1,2040,Note_off_c,9,46,0
1,3240,Note_on_c,9,35,100
1,3360,Note_off_c,9,35,0
1,3360,Note_on_c,9,35,100
1,3480,Note_off_c,9,35,0
1,3480,Note_on_c,9,35,100
1,3600,Note_off_c,9,35,0
1,3600,Note_on_c,9,35,100
1,3720,Note_off_c,9,35,0
1,3720,Note_on_c,9,35,100
1,3840,Note_off_c,9,35,0
1,3840,Note_on_c,9,35,100
1,3960,Note_off_c,9,35,0
1,3960,Note_on_c,9,35,100
1,4080,Note_off_c,9,35,0
1,4080,Note_on_c,9,35,100
1,4200,Note_off_c,9,35,0
1,4200,Note_on_c,9,35,100
1,4320,Note_off_c,9,35,0
1,4320,Note_on_c,9,35,100
1,4440,Note_off_c,9,35,0
1,4440,Note_on_c,9,35,100
1,4560,Note_off_c,9,35,0
1,4560,Note_on_c,9,35,100
1,4680,Note_off_c,9,35,0
1,4680,Note_on_c,9,35,100
1,4800,Note_off_c,9,35,0
1,4800,Note_on_c,9,35,100
1,4800,Note_on_c,9,38,100
1,4920,Note_off_c,9,35,0
1,4920,Note_off_c,9,38,0
1,4920,Note_on_c,9,35,100
1,4920,Note_on_c,9,38,100
1,5040,Note_off_c,9,35,0
1,5040,Note_off_c,9,38,0
1,5040,Note_on_c,9,35,100
1,5040,Note_on_c,9,38,100
1,5160,Note_off_c,9,35,0
1,5160,Note_off_c,9,38,0
1,5160,Note_on_c,9,35,100
1,5160,Note_on_c,9,38,100
1,5280,Note_off_c,9,35,0
1,5280,Note_off_c,9,38,0
1,5280,Note_on_c,9,35,100
1,5280,Note_on_c,9,38,100
1,5400,Note_off_c,9,35,0
1,5400,Note_off_c,9,38,0
1,5400,Note_on_c,9,35,100
1,5400,Note_on_c,9,38,100
1,5520,Note_off_c,9,35,0
1,5520,Note_off_c,9,38,0
1,5520,Note_on_c,9,35,100
1,5520,Note_on_c,9,38,100
1,5640,Note_off_c,9,35,0
1,5640,Note_off_c,9,38,0
1,5640,Note_on_c,9,35,100
1,5640,Note_on_c,9,38,100
1,5760,Note_off_c,9,35,0
1,5760,Note_off_c,9,38,0
1,5760,Note_on_c,9,38,100
1,5880,Note_off_c,9,38,0
1,5880,Note_on_c,9,38,100
1,6000,Note_off_c,9,38,0
1,6000,Note_on_c,9,38,100
1,6120,Note_off_c,9,38,0
1,6120,Note_on_c,9,38,100
1,6240,Note_off_c,9,38,0
1,6240,Note_on_c,9,38,100
1,6360,Note_off_c,9,38,0
1,6360,Note_on_c,9,38,100
1,6480,Note_off_c,9,38,0
1,6480,Note_on_c,9,38,100
1,6600,Note_off_c,9,38,0
1,6600,Note_on_c,9,38,100
1,6720,Note_off_c,9,38,0
1,6720,Note_on_c,9,38,100
1,6840,Note_off_c,9,38,0
1,6840,Note_on_c,9,38,100
1,6960,Note_off_c,9,38,0
1,6960,Note_on_c,9,38,100
1,7080,Note_off_c,9,38,0
1,7080,Note_on_c,9,38,100
1,7200,Note_off_c,9,38,0
1,7200,Note_on_c,9,38,100
1,7320,Note_off_c,9,38,0
1,7320,Note_on_c,9,38,100
1,7440,Note_off_c,9,38,0
1,7440,Note_on_c,9,38,100
1,7560,Note_off_c,9,38,0
1,7560,Note_on_c,9,38,100
1,7680,Note_off_c,9,38,0
1,7680,Note_on_c,9,38,100
1,7800,Note_off_c,9,38,0
1,7800,Note_on_c,9,38,100
1,7920,Note_off_c,9,38,0
1,7920,Note_on_c,9,38,100
1,8040,Note_off_c,9,38,0
1,8040,Note_on_c,9,38,100
1,8160,Note_off_c,9,38,0
1,8160,Note_on_c,9,38,100
1,8280,Note_off_c,9,38,0
1,8280,Note_on_c,9,38,100
1,8400,Note_off_c,9,38,0
1,8400,Note_on_c,9,38,100
1,8520,Note_off_c,9,38,0
1,8520,Note_on_c,9,38,100
1,8640,Note_off_c,9,38,0
1,8640,Note_on_c,9,38,100
1,8760,Note_off_c,9,38,0
1,8760,Note_on_c,9,38,100
1,8880,Note_off_c,9,38,0
1,8880,Note_on_c,9,38,100
1,9000,Note_off_c,9,38,0
1,10920,Note_on_c,9,46,100
1,11040,Note_off_c,9,46,0
1,11040,Note_on_c,9,42,100
1,11040,Note_on_c,9,46,100
1,11160,Note_off_c,9,42,0
1,11160,Note_off_c,9,46,0
1,11160,Note_on_c,9,42,100
1,11280,Note_off_c,9,42,0
1,11280,Note_on_c,9,42,100
1,11400,Note_off_c,9,42,0
1,11400,Note_on_c,9,42,100
1,11520,Note_off_c,9,42,0
1,11520,Note_on_c,9,42,100
1,11520,Note_on_c,9,46,100
1,11640,Note_off_c,9,42,0
1,11640,Note_off_c,9,46,0
1,11640,Note_on_c,9,42,100
1,11760,Note_off_c,9,42,0
1,11760,Note_on_c,9,42,100
1,11880,Note_off_c,9,42,0
1,11880,Note_on_c,9,42,100
1,11880,Note_on_c,9,46,100
1,12000,Note_off_c,9,42,0
1,12000,Note_off_c,9,46,0
1,12000,Note_on_c,9,42,100
1,12120,Note_off_c,9,42,0
1,12120,Note_on_c,9,42,100
1,12240,Note_off_c,9,42,0
1,12240,Note_on_c,9,42,100
1,12360,Note_off_c,9,42,0
1,12360,Note_on_c,9,42,100
1,12360,Note_on_c,9,46,100
1,12480,Note_off_c,9,42,0
1,12480,Note_off_c,9,46,0
1,12480,Note_on_c,9,42,100
1,12600,Note_off_c,9,42,0
1,12600,Note_on_c,9,42,100
1,12720,Note_off_c,9,42,0
1,12720,Note_on_c,9,42,100
1,12720,Note_on_c,9,46,100
1,12840,Note_off_c,9,42,0
1,12840,Note_off_c,9,46,0
1,12840,Note_on_c,9,42,100
1,12960,Note_off_c,9,42,0
1,12960,Note_on_c,9,42,100
1,13080,Note_off_c,9,42,0
1,13080,Note_on_c,9,42,100
1,13200,Note_off_c,9,42,0
1,13200,Note_on_c,9,42,100
1,13200,Note_on_c,9,46,100
1,13320,Note_off_c,9,42,0
1,13320,Note_off_c,9,46,0
1,13320,Note_on_c,9,42,100
1,13440,Note_off_c,9,42,0
1,13440,Note_on_c,9,42,100
1,13560,Note_off_c,9,42,0
1,13560,Note_on_c,9,42,100
1,13680,Note_off_c,9,42,0
1,13680,Note_on_c,9,42,100
1,13800,Note_off_c,9,42,0
1,13800,Note_on_c,9,42,100
1,13800,Note_on_c,9,46,100
1,13920,Note_off_c,9,42,0
1,13920,Note_off_c,9,46,0
1,13920,Note_on_c,9,42,100
1,14040,Note_off_c,9,42,0
1,14040,Note_on_c,9,42,100
1,14160,Note_off_c,9,42,0
1,14160,Note_on_c,9,42,100
1,14280,Note_off_c,9,42,0
1,14280,Note_on_c,9,42,100
1,14400,Note_off_c,9,42,0
1,14400,Note_on_c,9,42,100
1,14400,Note_on_c,9,46,100
1,14520,Note_off_c,9,42,0
1,14520,Note_off_c,9,46,0
1,14520,Note_on_c,9,42,100
1,14640,Note_off_c,9,42,0
1,14640,Note_on_c,9,42,100
1,14760,Note_off_c,9,42,0
1,14760,Note_on_c,9,42,100
1,14880,Note_off_c,9,42,0
1,14880,Note_on_c,9,42,100
1,15000,Note_off_c,9,42,0
1,15000,Note_on_c,9,42,100
1,15000,Note_on_c,9,46,100
1,15120,Note_off_c,9,42,0
1,15120,Note_off_c,9,46,0
1,15120,Note_on_c,9,42,100
1,15240,Note_off_c,9,42,0
1,15240,Note_on_c,9,42,100
1,15360,Note_off_c,9,42,0
1,15360,Note_on_c,9,42,100
1,15480,Note_off_c,9,42,0
1,15480,Note_on_c,9,42,100
1,15600,Note_off_c,9,42,0
1,15600,Note_on_c,9,42,100
1,15720,Note_off_c,9,42,0
1,15720,Note_on_c,9,42,100
1,15720,Note_on_c,9,46,100
1,15840,Note_off_c,9,42,0
1,15840,Note_off_c,9,46,0
1,15840,Note_on_c,9,42,100
1,15960,Note_off_c,9,42,0
1,15960,Note_on_c,9,42,100
1,16080,Note_off_c,9,42,0
1,16080,Note_on_c,9,42,100
1,16200,Note_off_c,9,42,0
1,16200,Note_on_c,9,42,100
1,16320,Note_off_c,9,42,0
1,16320,Note_on_c,9,42,100
1,16440,Note_off_c,9,42,0
1,16440,Note_on_c,9,42,100
1,16560,Note_off_c,9,42,0
1,16560,Note_on_c,9,42,100
1,16680,Note_off_c,9,42,0
1,16680,Note_on_c,9,42,100
1,16680,Note_on_c,9,46,100
1,16800,Note_off_c,9,42,0
1,16800,Note_off_c,9,46,0
1,16800,Note_on_c,9,42,100
1,16920,Note_off_c,9,42,0
1,16920,Note_on_c,9,42,100
1,17040,Note_off_c,9,42,0
1,17040,Note_on_c,9,42,100
1,17160,Note_off_c,9,42,0
1,17160,Note_on_c,9,42,100
1,17280,Note_off_c,9,42,0
1,17280,Note_on_c,9,42,100
1,17400,Note_off_c,9,42,0
1,17400,Note_on_c,9,42,100
1,17520,Note_off_c,9,42,0
1,17520,Note_on_c,9,42,100
1,17640,Note_off_c,9,42,0
1,17640,Note_on_c,9,42,100
1,17760,Note_off_c,9,42,0
1,17760,Note_on_c,9,42,100
1,17760,Note_on_c,9,46,100
1,17880,Note_off_c,9,42,0
1,17880,Note_off_c,9,46,0
1,17880,Note_on_c,9,42,100
1,18000,Note_off_c,9,42,0
1,18000,Note_on_c,9,42,100
1,18120,Note_off_c,9,42,0
1,18120,Note_on_c,9,42,100
1,18240,Note_off_c,9,42,0
1,18240,Note_on_c,9,42,100
1,18360,Note_off_c,9,42,0
1,18360,Note_on_c,9,42,100
1,18480,Note_off_c,9,42,0
1,18480,Note_on_c,9,42,100
1,18600,Note_off_c,9,42,0
1,18600,Note_on_c,9,42,100
1,18720,Note_off_c,9,42,0
1,18720,Note_on_c,9,42,100
1,18840,Note_off_c,9,42,0
1,18840,Note_on_c,9,42,100
1,18960,Note_off_c,9,42,0
1,18960,Note_on_c,9,42,100
1,18960,Note_on_c,9,35,100
1,19080,Note_off_c,9,42,0
1,19080,Note_off_c,9,35,0
1,19080,Note_on_c,9,42,100
1,19080,Note_on_c,9,35,100
1,19200,Note_off_c,9,42,0
1,19200,Note_off_c,9,35,0
1,19200,Note_on_c,9,42,100
1,19200,Note_on_c,9,35,100
1,19320,Note_off_c,9,42,0
1,19320,Note_off_c,9,35,0
1,19320,Note_on_c,9,42,100
1,19320,Note_on_c,9,35,100
1,19440,Note_off_c,9,42,0
1,19440,Note_off_c,9,35,0
1,19440,Note_on_c,9,42,100
1,19440,Note_on_c,9,35,100
1,19560,Note_off_c,9,42,0
1,19560,Note_off_c,9,35,0
1,19560,Note_on_c,9,42,100
1,19560,Note_on_c,9,35,100
1,19680,Note_off_c,9,42,0
1,19680,Note_off_c,9,35,0
1,19680,Note_on_c,9,42,100
1,19680,Note_on_c,9,35,100
1,19800,Note_off_c,9,42,0
1,19800,Note_off_c,9,35,0
1,19800,Note_on_c,9,42,100
1,19800,Note_on_c,9,35,100
1,19920,Note_off_c,9,42,0
1,19920,Note_off_c,9,35,0
1,19920,Note_on_c,9,42,100
1,19920,Note_on_c,9,35,100
1,20040,Note_off_c,9,42,0
1,20040,Note_off_c,9,35,0
1,20040,Note_on_c,9,42,100
1,20040,Note_on_c,9,35,100
1,20160,Note_off_c,9,42,0
1,20160,Note_off_c,9,35,0
1,20160,Note_on_c,9,42,100
1,20160,Note_on_c,9,35,100
1,20280,Note_off_c,9,42,0
1,20280,Note_off_c,9,35,0
1,20280,Note_on_c,9,42,100
1,20280,Note_on_c,9,35,100
1,20400,Note_off_c,9,42,0
1,20400,Note_off_c,9,35,0
1,20400,Note_on_c,9,42,100
1,20400,Note_on_c,9,35,100
1,20520,Note_off_c,9,42,0
1,20520,Note_off_c,9,35,0
1,20520,Note_on_c,9,42,100
1,20520,Note_on_c,9,35,100
1,20640,Note_off_c,9,42,0
1,20640,Note_off_c,9,35,0
1,20640,Note_on_c,9,42,100
1,20640,Note_on_c,9,35,100
1,20760,Note_off_c,9,42,0
1,20760,Note_off_c,9,35,0
1,20760,Note_on_c,9,35,100
1,20880,Note_off_c,9,35,0
1,20880,Note_on_c,9,35,100
1,21000,Note_off_c,9,35,0
1,21000,Note_on_c,9,35,100
1,21120,Note_off_c,9,35,0
1,21120,Note_on_c,9,35,100
1,21240,Note_off_c,9,35,0
1,21240,Note_on_c,9,35,100
1,21360,Note_off_c,9,35,0
1,21360,Note_on_c,9,35,100
1,21480,Note_off_c,9,35,0
1,21480,Note_on_c,9,35,100
1,21600,Note_off_c,9,35,0
1,21600,Note_on_c,9,35,100
1,21720,Note_off_c,9,35,0
1,21720,Note_on_c,9,35,100
1,21840,Note_off_c,9,35,0
1,21840,Note_on_c,9,35,100
1,21960,Note_off_c,9,35,0
1,21960,Note_on_c,9,35,100
1,22080,Note_off_c,9,35,0
1,22080,Note_on_c,9,35,100
1,22200,Note_off_c,9,35,0
1,22200,Note_on_c,9,35,100
1,22320,Note_off_c,9,35,0
1,22320,Note_on_c,9,35,100
1,22440,Note_off_c,9,35,0
1,22440,Note_on_c,9,35,100
1,22560,Note_off_c,9,35,0
1,22560,Note_on_c,9,35,100
1,22680,Note_off_c,9,35,0
1,22680,Note_on_c,9,35,100
1,22800,Note_off_c,9,35,0
1,22800,Note_on_c,9,35,100
1,22920,Note_off_c,9,35,0
1,22920,Note_on_c,9,35,100
1,23040,Note_off_c,9,35,0
1,23040,Note_on_c,9,35,100
1,23160,Note_off_c,9,35,0
1,23160,Note_on_c,9,35,100
1,23280,Note_off_c,9,35,0
1,33240,Note_on_c,9,42,100
1,33360,Note_off_c,9,42,0
1,33360,Note_on_c,9,42,100
1,33480,Note_off_c,9,42,0
1,33480,Note_on_c,9,42,100
1,33600,Note_off_c,9,42,0
1,33600,Note_on_c,9,42,100
1,33720,Note_off_c,9,42,0
1,33720,Note_on_c,9,42,100
1,33840,Note_off_c,9,42,0
1,33840,Note_on_c,9,42,100
1,33960,Note_off_c,9,42,0
1,33960,Note_on_c,9,42,100
1,34080,Note_off_c,9,42,0
1,34080,Note_on_c,9,42,100
1,34200,Note_off_c,9,42,0
1,34200,Note_on_c,9,42,100
1,34320,Note_off_c,9,42,0
1,34320,Note_on_c,9,42,100
1,34440,Note_off_c,9,42,0
1,34440,Note_on_c,9,42,100
1,34560,Note_off_c,9,42,0
1,34560,Note_on_c,9,42,100
1,34680,Note_off_c,9,42,0
1,34680,Note_on_c,9,42,100
1,34800,Note_off_c,9,42,0
1,34800,Note_on_c,9,42,100
1,34920,Note_off_c,9,42,0
1,34920,Note_on_c,9,42,100
1,35040,Note_off_c,9,42,0
1,35040,Note_on_c,9,42,100
1,35160,Note_off_c,9,42,0
1,35160,Note_on_c,9,42,100
1,35280,Note_off_c,9,42,0
1,35280,Note_on_c,9,42,100
1,35400,Note_off_c,9,42,0
1,35400,Note_on_c,9,42,100
1,35520,Note_off_c,9,42,0
1,35520,Note_on_c,9,42,100
1,35640,Note_off_c,9,42,0
1,35640,Note_on_c,9,42,100
1,35760,Note_off_c,9,42,0
1,35760,Note_on_c,9,42,100
1,35880,Note_off_c,9,42,0
1,35880,Note_on_c,9,42,100
1,36000,Note_off_c,9,42,0
1,36000,Note_on_c,9,42,100
1,36120,Note_off_c,9,42,0
1,36120,Note_on_c,9,42,100
1,36240,Note_off_c,9,42,0
1,36240,Note_on_c,9,42,100
1,36360,Note_off_c,9,42,0
1,36360,Note_on_c,9,42,100
1,36480,Note_off_c,9,42,0
1,36480,Note_on_c,9,42,100
1,36600,Note_off_c,9,42,0
1,36600,Note_on_c,9,42,100
1,36720,Note_off_c,9,42,0
1,36720,Note_on_c,9,42,100
1,36840,Note_off_c,9,42,0
1,36840,Note_on_c,9,42,100
1,36960,Note_off_c,9,42,0
1,36960,Note_on_c,9,42,100
1,36960,Note_on_c,9,35,100
1,37080,Note_off_c,9,42,0
1,37080,Note_off_c,9,35,0
1,37080,Note_on_c,9,42,100
1,37080,Note_on_c,9,35,100
1,37200,Note_off_c,9,42,0
1,37200,Note_off_c,9,35,0
1,37200,Note_on_c,9,42,100
1,37200,Note_on_c,9,35,100
1,37320,Note_off_c,9,42,0
1,37320,Note_off_c,9,35,0
1,37320,Note_on_c,9,42,100
1,37320,Note_on_c,9,35,100
1,37440,Note_off_c,9,42,0
1,37440,Note_off_c,9,35,0
1,37440,Note_on_c,9,42,100
1,37440,Note_on_c,9,35,100
1,37440,Note_on_c,9,38,100
1,37560,Note_off_c,9,42,0
1,37560,Note_off_c,9,35,0
1,37560,Note_off_c,9,38,0
1,37560,Note_on_c,9,42,100
1,37560,Note_on_c,9,35,100
1,37560,Note_on_c,9,38,100
1,37680,Note_off_c,9,42,0
1,37680,Note_off_c,9,35,0
1,37680,Note_off_c,9,38,0
1,37680,Note_on_c,9,42,100
1,37680,Note_on_c,9,35,100
1,37680,Note_on_c,9,38,100
1,37800,Note_off_c,9,42,0
1,37800,Note_off_c,9,35,0
1,37800,Note_off_c,9,38,0
1,37800,Note_on_c,9,42,100
1,37800,Note_on_c,9,35,100
1,37800,Note_on_c,9,38,100
1,37920,Note_off_c,9,42,0
1,37920,Note_off_c,9,35,0
1,37920,Note_off_c,9,38,0
1,37920,Note_on_c,9,42,100
1,37920,Note_on_c,9,35,100
1,37920,Note_on_c,9,38,100
1,38040,Note_off_c,9,42,0
1,38040,Note_off_c,9,35,0
1,38040,Note_off_c,9,38,0
1,38040,Note_on_c,9,42,100
1,38040,Note_on_c,9,35,100
1,38040,Note_on_c,9,38,100
1,38160,Note_off_c,9,42,0
1,38160,Note_off_c,9,35,0
1,38160,Note_off_c,9,38,0
1,38160,Note_on_c,9,42,100
1,38160,Note_on_c,9,35,100
1,38160,Note_on_c,9,38,100
1,38280,Note_off_c,9,42,0
1,38280,Note_off_c,9,35,0
1,38280,Note_off_c,9,38,0
1,38280,Note_on_c,9,42,100
1,38280,Note_on_c,9,35,100
1,38280,Note_on_c,9,38,100
1,38400,Note_off_c,9,42,0
1,38400,Note_off_c,9,35,0
1,38400,Note_off_c,9,38,0
1,38400,Note_on_c,9,42,100
1,38400,Note_on_c,9,35,100
1,38400,Note_on_c,9,38,100
1,38400,Note_on_c,9,43,100
1,38520,Note_off_c,9,42,0
1,38520,Note_off_c,9,35,0
1,38520,Note_off_c,9,38,0
1,38520,Note_off_c,9,43,0
1,38520,Note_on_c,9,42,100
1,38520,Note_on_c,9,35,100
1,38520,Note_on_c,9,38,100
1,38520,Note_on_c,9,43,100
1,38640,Note_off_c,9,42,0
1,38640,Note_off_c,9,35,0
1,38640,Note_off_c,9,38,0
1,38640,Note_off_c,9,43,0
1,38640,Note_on_c,9,42,100
1,38640,Note_on_c,9,35,100
1,38640,Note_on_c,9,38,100
1,38640,Note_on_c,9,43,100
1,38760,Note_off_c,9,42,0
1,38760,Note_off_c,9,35,0
1,38760,Note_off_c,9,38,0
1,38760,Note_off_c,9,43,0
1,38760,Note_on_c,9,42,100
1,38760,Note_on_c,9,35,100
1,38760,Note_on_c,9,38,100
1,38760,Note_on_c,9,43,100
1,38880,Note_off_c,9,42,0
1,38880,Note_off_c,9,35,0
1,38880,Note_off_c,9,38,0
1,38880,Note_off_c,9,43,0
1,38880,Note_on_c,9,42,100
1,38880,Note_on_c,9,35,100
1,38880,Note_on_c,9,38,100
1,38880,Note_on_c,9,43,100
1,39000,Note_off_c,9,42,0
1,39000,Note_off_c,9,35,0
1,39000,Note_off_c,9,38,0
1,39000,Note_off_c,9,43,0
1,39000,Note_on_c,9,42,100
1,39000,Note_on_c,9,35,100
1,39000,Note_on_c,9,38,100
1,39000,Note_on_c,9,43,100
1,39120,Note_off_c,9,42,0
1,39120,Note_off_c,9,35,0
1,39120,Note_off_c,9,38,0
1,39120,Note_off_c,9,43,0
1,39120,Note_on_c,9,42,100
1,39120,Note_on_c,9,35,100
1,39120,Note_on_c,9,38,100
1,39120,Note_on_c,9,43,100
1,39240,Note_off_c,9,42,0
1,39240,Note_off_c,9,35,0
1,39240,Note_off_c,9,38,0
1,39240,Note_off_c,9,43,0
1,39240,Note_on_c,9,42,100
1,39240,Note_on_c,9,35,100
1,39240,Note_on_c,9,38,100
1,39240,Note_on_c,9,43,100
1,39360,Note_off_c,9,42,0
1,39360,Note_off_c,9,35,0
1,39360,Note_off_c,9,38,0
1,39360,Note_off_c,9,43,0
1,39360,Note_on_c,9,42,100
1,39360,Note_on_c,9,35,100
1,39360,Note_on_c,9,38,100
1,39360,Note_on_c,9,43,100
1,39480,Note_off_c,9,42,0
1,39480,Note_off_c,9,35,0
1,39480,Note_off_c,9,38,0
1,39480,Note_off_c,9,43,0
1,39480,Note_on_c,9,42,100
1,39480,Note_on_c,9,35,100
1,39480,Note_on_c,9,38,100
1,39480,Note_on_c,9,43,100
1,39600,Note_off_c,9,42,0
1,39600,Note_off_c,9,35,0
1,39600,Note_off_c,9,38,0
1,39600,Note_off_c,9,43,0
1,39600,Note_on_c,9,42,100
1,39600,Note_on_c,9,35,100
1,39600,Note_on_c,9,38,100
1,39600,Note_on_c,9,43,100
1,39720,Note_off_c,9,42,0
1,39720,Note_off_c,9,35,0
1,39720,Note_off_c,9,38,0
1,39720,Note_off_c,9,43,0
1,39720,Note_on_c,9,42,100
1,39720,Note_on_c,9,35,100
1,39720,Note_on_c,9,38,100
1,39720,Note_on_c,9,43,100
1,39840,Note_off_c,9,42,0
1,39840,Note_off_c,9,35,0
1,39840,Note_off_c,9,38,0
1,39840,Note_off_c,9,43,0
1,39840,Note_on_c,9,42,100
1,39840,Note_on_c,9,35,100
1,39840,Note_on_c,9,38,100
1,39840,Note_on_c,9,43,100
1,39960,Note_off_c,9,42,0
1,39960,Note_off_c,9,35,0
1,39960,Note_off_c,9,38,0
1,39960,Note_off_c,9,43,0
1,39960,Note_on_c,9,42,100
1,39960,Note_on_c,9,35,100
1,39960,Note_on_c,9,38,100
1,39960,Note_on_c,9,43,100
1,40080,Note_off_c,9,42,0
1,40080,Note_off_c,9,35,0
1,40080,Note_off_c,9,38,0
1,40080,Note_off_c,9,43,0
1,40080,Note_on_c,9,42,100
1,40080,Note_on_c,9,35,100
1,40080,Note_on_c,9,38,100
1,40080,Note_on_c,9,43,100
1,40200,Note_off_c,9,42,0
1,40200,Note_off_c,9,35,0
1,40200,Note_off_c,9,38,0
1,40200,Note_off_c,9,43,0
1,40200,Note_on_c,9,42,100
1,40200,Note_on_c,9,46,100
1,40200,Note_on_c,9,35,100
1,40200,Note_on_c,9,38,100
1,40200,Note_on_c,9,43,100
1,40320,Note_off_c,9,42,0
1,40320,Note_off_c,9,46,0
1,40320,Note_off_c,9,35,0
1,40320,Note_off_c,9,38,0
1,40320,Note_off_c,9,43,0
1,40320,Note_on_c,9,42,100
1,40320,Note_on_c,9,35,100
1,40320,Note_on_c,9,38,100
1,40320,Note_on_c,9,43,100
1,40440,Note_off_c,9,42,0
1,40440,Note_off_c,9,35,0
1,40440,Note_off_c,9,38,0
1,40440,Note_off_c,9,43,0
1,40440,Note_on_c,9,42,100
1,40440,Note_on_c,9,46,100
1,40440,Note_on_c,9,35,100
1,40440,Note_on_c,9,38,100
1,40440,Note_on_c,9,43,100
1,40560,Note_off_c,9,42,0
1,40560,Note_off_c,9,46,0
1,40560,Note_off_c,9,35,0
1,40560,Note_off_c,9,38,0
1,40560,Note_off_c,9,43,0
1,40560,Note_on_c,9,42,100
1,40560,Note_on_c,9,35,100
1,40560,Note_on_c,9,38,100
1,40560,Note_on_c,9,43,100
1,40680,Note_off_c,9,42,0
1,40680,Note_off_c,9,35,0
1,40680,Note_off_c,9,38,0
1,40680,Note_off_c,9,43,0
1,40680,Note_on_c,9,42,100
1,40680,Note_on_c,9,46,100
1,40680,Note_on_c,9,35,100
1,40680,Note_on_c,9,38,100
1,40680,Note_on_c,9,43,100
1,40800,Note_off_c,9,42,0
1,40800,Note_off_c,9,46,0
1,40800,Note_off_c,9,35,0
1,40800,Note_off_c,9,38,0
1,40800,Note_off_c,9,43,0
1,40800,Note_on_c,9,42,100
1,40800,Note_on_c,9,35,100
1,40800,Note_on_c,9,38,100
1,40800,Note_on_c,9,43,100
1,40920,Note_off_c,9,42,0
1,40920,Note_off_c,9,35,0
1,40920,Note_off_c,9,38,0
1,40920,Note_off_c,9,43,0
1,40920,Note_on_c,9,42,100
1,40920,Note_on_c,9,46,100
1,40920,Note_on_c,9,35,100
1,40920,Note_on_c,9,38,100
1,40920,Note_on_c,9,43,100
1,41040,Note_off_c,9,42,0
1,41040,Note_off_c,9,46,0
1,41040,Note_off_c,9,35,0
1,41040,Note_off_c,9,38,0
1,41040,Note_off_c,9,43,0
1,41040,Note_on_c,9,42,100
1,41040,Note_on_c,9,46,100
1,41040,Note_on_c,9,35,100
1,41040,Note_on_c,9,38,100
1,41040,Note_on_c,9,43,100
1,41160,Note_off_c,9,42,0
1,41160,Note_off_c,9,46,0
1,41160,Note_off_c,9,35,0
1,41160,Note_off_c,9,38,0
1,41160,Note_off_c,9,43,0
1,41160,Note_on_c,9,42,100
1,41160,Note_on_c,9,35,100
1,41160,Note_on_c,9,38,100
1,41160,Note_on_c,9,43,100
1,41280,Note_off_c,9,42,0
1,41280,Note_off_c,9,35,0
1,41280,Note_off_c,9,38,0
1,41280,Note_off_c,9,43,0
1,41280,Note_on_c,9,42,100
1,41280,Note_on_c,9,46,100
1,41280,Note_on_c,9,35,100
1,41280,Note_on_c,9,38,100
1,41280,Note_on_c,9,43,100
1,41400,Note_off_c,9,42,0
1,41400,Note_off_c,9,46,0
1,41400,Note_off_c,9,35,0
1,41400,Note_off_c,9,38,0
1,41400,Note_off_c,9,43,0
1,41400,Note_on_c,9,42,100
1,41400,Note_on_c,9,46,100
1,41400,Note_on_c,9,35,100
1,41400,Note_on_c,9,43,100
1,41520,Note_off_c,9,42,0
1,41520,Note_off_c,9,46,0
1,41520,Note_off_c,9,35,0
1,41520,Note_off_c,9,43,0
1,41520,Note_on_c,9,42,100
1,41520,Note_on_c,9,35,100
1,41520,Note_on_c,9,43,100
1,41640,Note_off_c,9,42,0
1,41640,Note_off_c,9,35,0
1,41640,Note_off_c,9,43,0
1,41640,Note_on_c,9,42,100
1,41640,Note_on_c,9,46,100
1,41640,Note_on_c,9,35,100
1,41640,Note_on_c,9,43,100
1,41760,Note_off_c,9,42,0
1,41760,Note_off_c,9,46,0
1,41760,Note_off_c,9,35,0
1,41760,Note_off_c,9,43,0
1,41760,Note_on_c,9,42,100
1,41760,Note_on_c,9,35,100
1,41760,Note_on_c,9,43,100
1,41880,Note_off_c,9,42,0
1,41880,Note_off_c,9,35,0
1,41880,Note_off_c,9,43,0
1,41880,Note_on_c,9,42,100
1,41880,Note_on_c,9,46,100
1,41880,Note_on_c,9,35,100
1,41880,Note_on_c,9,43,100
1,42000,Note_off_c,9,42,0
1,42000,Note_off_c,9,46,0
1,42000,Note_off_c,9,35,0
1,42000,Note_off_c,9,43,0
1,42000,Note_on_c,9,42,100
1,42000,Note_on_c,9,35,100
1,42000,Note_on_c,9,43,100
1,42120,Note_off_c,9,42,0
1,42120,Note_off_c,9,35,0
1,42120,Note_off_c,9,43,0
1,42120,Note_on_c,9,42,100
1,42120,Note_on_c,9,46,100
1,42120,Note_on_c,9,35,100
1,42120,Note_on_c,9,43,100
1,42240,Note_off_c,9,42,0
1,42240,Note_off_c,9,46,0
1,42240,Note_off_c,9,35,0
1,42240,Note_off_c,9,43,0
1,42240,Note_on_c,9,42,100
1,42240,Note_on_c,9,35,100
1,42240,Note_on_c,9,43,100
1,42360,Note_off_c,9,42,0
1,42360,Note_off_c,9,35,0
1,42360,Note_off_c,9,43,0
1,42360,Note_on_c,9,42,100
1,42360,Note_on_c,9,46,100
1,42360,Note_on_c,9,35,100
1,42360,Note_on_c,9,43,100
1,42480,Note_off_c,9,42,0
1,42480,Note_off_c,9,46,0
1,42480,Note_off_c,9,35,0
1,42480,Note_off_c,9,43,0
1,42480,Note_on_c,9,42,100
1,42480,Note_on_c,9,35,100
1,42480,Note_on_c,9,43,100
1,42600,Note_off_c,9,42,0
1,42600,Note_off_c,9,35,0
1,42600,Note_off_c,9,43,0
1,42600,Note_on_c,9,42,100
1,42600,Note_on_c,9,46,100
1,42600,Note_on_c,9,35,100
1,42600,Note_on_c,9,43,100
1,42720,Note_off_c,9,42,0
1,42720,Note_off_c,9,46,0
1,42720,Note_off_c,9,35,0
1,42720,Note_off_c,9,43,0
1,42720,Note_on_c,9,42,100
1,42720,Note_on_c,9,35,100
1,42720,Note_on_c,9,43,100
1,42840,Note_off_c,9,42,0
1,42840,Note_off_c,9,35,0
1,42840,Note_off_c,9,43,0
1,42840,Note_on_c,9,42,100
1,42840,Note_on_c,9,35,100
1,42840,Note_on_c,9,43,100
1,42960,Note_off_c,9,42,0
1,42960,Note_off_c,9,35,0
1,42960,Note_off_c,9,43,0
1,42960,Note_on_c,9,42,100
1,42960,Note_on_c,9,46,100
1,42960,Note_on_c,9,43,100
1,43080,Note_off_c,9,42,0
1,43080,Note_off_c,9,46,0
1,43080,Note_off_c,9,43,0
1,43080,Note_on_c,9,42,100
1,43080,Note_on_c,9,46,100
1,43080,Note_on_c,9,43,100
1,43200,Note_off_c,9,42,0
1,43200,Note_off_c,9,46,0
1,43200,Note_off_c,9,43,0
1,43200,Note_on_c,9,42,100
1,43200,Note_on_c,9,43,100
1,43320,Note_off_c,9,42,0
1,43320,Note_off_c,9,43,0
1,43320,Note_on_c,9,42,100
1,43320,Note_on_c,9,46,100
1,43320,Note_on_c,9,43,100
1,43440,Note_off_c,9,42,0
1,43440,Note_off_c,9,46,0
1,43440,Note_off_c,9,43,0
1,43440,Note_on_c,9,42,100
1,43440,Note_on_c,9,46,100
1,43440,Note_on_c,9,43,100
1,43560,Note_off_c,9,42,0
1,43560,Note_off_c,9,46,0
1,43560,Note_off_c,9,43,0
1,43560,Note_on_c,9,42,100
1,43560,Note_on_c,9,46,100
1,43560,Note_on_c,9,43,100
1,43680,Note_off_c,9,42,0
1,43680,Note_off_c,9,46,0
1,43680,Note_off_c,9,43,0
1,43680,Note_on_c,9,42,100
1,43680,Note_on_c,9,43,100
1,43800,Note_off_c,9,42,0
1,43800,Note_off_c,9,43,0
1,43800,Note_on_c,9,42,100
1,43800,Note_on_c,9,46,100
1,43800,Note_on_c,9,43,100
1,43920,Note_off_c,9,42,0
1,43920,Note_off_c,9,46,0
1,43920,Note_off_c,9,43,0
1,43920,Note_on_c,9,42,100
1,43920,Note_on_c,9,43,100
1,44040,Note_off_c,9,42,0
1,44040,Note_off_c,9,43,0
1,44040,Note_on_c,9,42,100
1,44040,Note_on_c,9,43,100
1,44160,Note_off_c,9,42,0
1,44160,Note_off_c,9,43,0
1,44160,Note_on_c,9,42,100
1,44160,Note_on_c,9,43,100
1,44280,Note_off_c,9,42,0
1,44280,Note_off_c,9,43,0
1,44280,Note_on_c,9,42,100
1,44280,Note_on_c,9,43,100
1,44400,Note_off_c,9,42,0
1,44400,Note_off_c,9,43,0
1,44400,Note_on_c,9,42,100
1,44400,Note_on_c,9,43,100
1,44520,Note_off_c,9,42,0
1,44520,Note_off_c,9,43,0
1,44520,Note_on_c,9,42,100
1,44520,Note_on_c,9,46,100
1,44520,Note_on_c,9,43,100
1,44640,Note_off_c,9,42,0
1,44640,Note_off_c,9,46,0
1,44640,Note_off_c,9,43,0
1,44640,Note_on_c,9,42,100
1,44640,Note_on_c,9,43,100
1,44760,Note_off_c,9,42,0
1,44760,Note_off_c,9,43,0
1,44760,Note_on_c,9,42,100
1,44760,Note_on_c,9,43,100
1,44880,Note_off_c,9,42,0
1,44880,Note_off_c,9,43,0
1,44880,Note_on_c,9,42,100
1,44880,Note_on_c,9,43,100
1,45000,Note_off_c,9,42,0
1,45000,Note_off_c,9,43,0
1,45000,Note_on_c,9,42,100
1,45000,Note_on_c,9,43,100
1,45120,Note_off_c,9,42,0
1,45120,Note_off_c,9,43,0
1,45120,Note_on_c,9,42,100
1,45120,Note_on_c,9,43,100
1,45240,Note_off_c,9,42,0
1,45240,Note_off_c,9,43,0
1,45240,Note_on_c,9,42,100
1,45360,Note_off_c,9,42,0
1,45360,Note_on_c,9,42,100
1,45480,Note_off_c,9,42,0
1,45480,Note_on_c,9,42,100
1,45600,Note_off_c,9,42,0
1,45720,Note_on_c,9,49,100
1,45720,Note_on_c,9,50,100
1,45840,Note_off_c,9,49,0
1,45840,Note_off_c,9,50,0
1,45840,Note_on_c,9,49,100
1,45840,Note_on_c,9,50,100
1,45960,Note_off_c,9,49,0
1,45960,Note_off_c,9,50,0
1,45960,Note_on_c,9,49,100
1,45960,Note_on_c,9,50,100
1,46080,Note_off_c,9,49,0
1,46080,Note_off_c,9,50,0
1,46080,Note_on_c,9,49,100
1,46080,Note_on_c,9,50,100
1,46200,Note_off_c,9,49,0
1,46200,Note_off_c,9,50,0
1,46200,Note_on_c,9,49,100
1,46200,Note_on_c,9,50,100
1,46320,Note_off_c,9,49,0
1,46320,Note_off_c,9,50,0
1,46320,Note_on_c,9,49,100
1,46320,Note_on_c,9,50,100
1,46440,Note_off_c,9,49,0
1,46440,Note_off_c,9,50,0
1,46440,Note_on_c,9,49,100
1,46440,Note_on_c,9,50,100
1,46560,Note_off_c,9,49,0
1,46560,Note_off_c,9,50,0
1,46560,Note_on_c,9,49,100
1,46560,Note_on_c,9,50,100
1,46680,Note_off_c,9,49,0
1,46680,Note_off_c,9,50,0
1,46680,Note_on_c,9,49,100
1,46680,Note_on_c,9,50,100
1,46800,Note_off_c,9,49,0
1,46800,Note_off_c,9,50,0
1,46800,Note_on_c,9,49,100
1,46800,Note_on_c,9,50,100
1,46920,Note_off_c,9,49,0
1,46920,Note_off_c,9,50,0
1,46920,Note_on_c,9,49,100
1,46920,Note_on_c,9,50,100
1,47040,Note_off_c,9,49,0
1,47040,Note_off_c,9,50,0
1,47040,Note_on_c,9,49,100
1,47040,Note_on_c,9,50,100
1,47160,Note_off_c,9,49,0
1,47160,Note_off_c,9,50,0
1,47160,Note_on_c,9,49,100
1,47160,Note_on_c,9,50,100
1,47280,Note_off_c,9,49,0
1,47280,Note_off_c,9,50,0
1,47280,Note_on_c,9,49,100
1,47280,Note_on_c,9,50,100
1,47400,Note_off_c,9,49,0
1,47400,Note_off_c,9,50,0
1,47400,Note_on_c,9,49,100
1,47400,Note_on_c,9,50,100
1,47520,Note_off_c,9,49,0
1,47520,Note_off_c,9,50,0
1,47520,Note_on_c,9,49,100
1,47520,Note_on_c,9,50,100
1,47640,Note_off_c,9,49,0
1,47640,Note_off_c,9,50,0
1,47640,Note_on_c,9,49,100
1,47640,Note_on_c,9,50,100
1,47760,Note_off_c,9,49,0
1,47760,Note_off_c,9,50,0
1,47760,Note_on_c,9,49,100
1,47760,Note_on_c,9,50,100
1,47880,Note_off_c,9,49,0
1,47880,Note_off_c,9,50,0
1,47880,Note_on_c,9,49,100
1,47880,Note_on_c,9,50,100
1,48000,Note_off_c,9,49,0
1,48000,Note_off_c,9,50,0
1,48000,Note_on_c,9,49,100
1,48000,Note_on_c,9,50,100
1,48120,Note_off_c,9,49,0
1,48120,Note_off_c,9,50,0
1,48120,Note_on_c,9,49,100
1,48120,Note_on_c,9,50,100
1,48240,Note_off_c,9,49,0
1,48240,Note_off_c,9,50,0
1,48240,Note_on_c,9,49,100
1,48240,Note_on_c,9,50,100
1,48360,Note_off_c,9,49,0
1,48360,Note_off_c,9,50,0
1,48360,Note_on_c,9,49,100
1,48360,Note_on_c,9,50,100
1,48480,Note_off_c,9,49,0
1,48480,Note_off_c,9,50,0
1,48480,Note_on_c,9,49,100
1,48480,Note_on_c,9,50,100
1,48600,Note_off_c,9,49,0
1,48600,Note_off_c,9,50,0
1,48600,Note_on_c,9,49,100
1,48600,Note_on_c,9,50,100
1,48720,Note_off_c,9,49,0
1,48720,Note_off_c,9,50,0
1,48720,Note_on_c,9,49,100
1,48720,Note_on_c,9,50,100
1,48840,Note_off_c,9,49,0
1,48840,Note_off_c,9,50,0
1,48840,Note_on_c,9,49,100
1,48840,Note_on_c,9,50,100
1,48960,Note_off_c,9,49,0
1,48960,Note_off_c,9,50,0
1,48960,Note_on_c,9,49,100
1,48960,Note_on_c,9,50,100
1,49080,Note_off_c,9,49,0
1,49080,Note_off_c,9,50,0
1,49080,Note_on_c,9,49,100
1,49080,Note_on_c,9,50,100
1,49200,Note_off_c,9,49,0
1,49200,Note_off_c,9,50,0
1,49200,Note_on_c,9,49,100
1,49200,Note_on_c,9,50,100
1,49320,Note_off_c,9,49,0
1,49320,Note_off_c,9,50,0
1,49320,Note_on_c,9,49,100
1,49320,Note_on_c,9,50,100
1,49440,Note_off_c,9,49,0
1,49440,Note_off_c,9,50,0
1,49440,Note_on_c,9,49,100
1,49440,Note_on_c,9,50,100
1,49560,Note_off_c,9,49,0
1,49560,Note_off_c,9,50,0
1,49560,Note_on_c,9,49,100
1,49560,Note_on_c,9,50,100
1,49680,Note_off_c,9,49,0
1,49680,Note_off_c,9,50,0
1,49680,Note_on_c,9,49,100
1,49680,Note_on_c,9,50,100
1,49800,Note_off_c,9,49,0
1,49800,Note_off_c,9,50,0
1,49800,Note_on_c,9,49,100
1,49800,Note_on_c,9,50,100
1,49920,Note_off_c,9,49,0
1,49920,Note_off_c,9,50,0
1,49920,Note_on_c,9,49,100
1,49920,Note_on_c,9,50,100
1,50040,Note_off_c,9,49,0
1,50040,Note_off_c,9,50,0
1,50040,Note_on_c,9,49,100
1,50040,Note_on_c,9,50,100
1,50160,Note_off_c,9,49,0
1,50160,Note_off_c,9,50,0
1,50160,Note_on_c,9,49,100
1,50160,Note_on_c,9,50,100
1,50280,Note_off_c,9,49,0
1,50280,Note_off_c,9,50,0
1,50280,Note_on_c,9,49,100
1,50280,Note_on_c,9,50,100
1,50400,Note_off_c,9,49,0
1,50400,Note_off_c,9,50,0
1,50400,Note_on_c,9,49,100
1,50400,Note_on_c,9,50,100
1,50520,Note_off_c,9,49,0
1,50520,Note_off_c,9,50,0
1,50520,Note_on_c,9,49,100
1,50520,Note_on_c,9,50,100
1,50640,Note_off_c,9,49,0
1,50640,Note_off_c,9,50,0
1,50640,Note_on_c,9,49,100
1,50640,Note_on_c,9,50,100
1,50760,Note_off_c,9,49,0
1,50760,Note_off_c,9,50,0
1,50760,Note_on_c,9,49,100
1,50760,Note_on_c,9,50,100
1,50880,Note_off_c,9,49,0
1,50880,Note_off_c,9,50,0
1,50880,Note_on_c,9,49,100
1,50880,Note_on_c,9,50,100
1,51000,Note_off_c,9,49,0
1,51000,Note_off_c,9,50,0
1,51000,Note_on_c,9,49,100
1,51000,Note_on_c,9,50,100
1,51120,Note_off_c,9,49,0
1,51120,Note_off_c,9,50,0
1,51120,Note_on_c,9,49,100
1,51120,Note_on_c,9,50,100
1,51240,Note_off_c,9,49,0
1,51240,Note_off_c,9,50,0
1,51240,Note_on_c,9,49,100
1,51240,Note_on_c,9,50,100
1,51360,Note_off_c,9,49,0
1,51360,Note_off_c,9,50,0
1,51360,Note_on_c,9,49,100
1,51360,Note_on_c,9,50,100
1,51480,Note_off_c,9,49,0
1,51480,Note_off_c,9,50,0
1,51480,Note_on_c,9,49,100
1,51480,Note_on_c,9,50,100
1,51600,Note_off_c,9,49,0
1,51600,Note_off_c,9,50,0
1,51600,Note_on_c,9,49,100
1,51600,Note_on_c,9,50,100
1,51720,Note_off_c,9,49,0
1,51720,Note_off_c,9,50,0
1,51720,Note_on_c,9,49,100
1,51720,Note_on_c,9,50,100
1,51840,Note_off_c,9,49,0
1,51840,Note_off_c,9,50,0
1,51840,Note_on_c,9,49,100
1,51840,Note_on_c,9,50,100
1,51960,Note_off_c,9,49,0
1,51960,Note_off_c,9,50,0
1,51960,Note_on_c,9,49,100
1,51960,Note_on_c,9,50,100
1,52080,Note_off_c,9,49,0
1,52080,Note_off_c,9,50,0
1,52080,Note_on_c,9,49,100
1,52080,Note_on_c,9,50,100
1,52200,Note_off_c,9,49,0
1,52200,Note_off_c,9,50,0
1,52200,Note_on_c,9,49,100
1,52200,Note_on_c,9,50,100
1,52320,Note_off_c,9,49,0
1,52320,Note_off_c,9,50,0
1,52320,Note_on_c,9,49,100
1,52320,Note_on_c,9,50,100
1,52440,Note_off_c,9,49,0
1,52440,Note_off_c,9,50,0
1,52440,Note_on_c,9,49,100
1,52440,Note_on_c,9,50,100
1,52560,Note_off_c,9,49,0
1,52560,Note_off_c,9,50,0
1,52560,Note_on_c,9,49,100
1,52560,Note_on_c,9,50,100
1,52680,Note_off_c,9,49,0
1,52680,Note_off_c,9,50,0
1,52680,Note_on_c,9,49,100
1,52680,Note_on_c,9,50,100
1,52800,Note_off_c,9,49,0
1,52800,Note_off_c,9,50,0
1,52800,Note_on_c,9,49,100
1,52800,Note_on_c,9,50,100
1,52920,Note_off_c,9,49,0
1,52920,Note_off_c,9,50,0
1,52920,Note_on_c,9,49,100
1,52920,Note_on_c,9,50,100
1,53040,Note_off_c,9,49,0
1,53040,Note_off_c,9,50,0
1,53040,Note_on_c,9,46,100
1,53040,Note_on_c,9,49,100
1,53040,Note_on_c,9,50,100
1,53160,Note_off_c,9,46,0
1,53160,Note_off_c,9,49,0
1,53160,Note_off_c,9,50,0
1,53160,Note_on_c,9,46,100
1,53160,Note_on_c,9,49,100
1,53160,Note_on_c,9,50,100
1,53280,Note_off_c,9,46,0
1,53280,Note_off_c,9,49,0
1,53280,Note_off_c,9,50,0
1,53280,Note_on_c,9,46,100
1,53280,Note_on_c,9,49,100
1,53280,Note_on_c,9,50,100
1,53400,Note_off_c,9,46,0
1,53400,Note_off_c,9,49,0
1,53400,Note_off_c,9,50,0
1,53400,Note_on_c,9,46,100
1,53400,Note_on_c,9,49,100
1,53400,Note_on_c,9,50,100
1,53520,Note_off_c,9,46,0
1,53520,Note_off_c,9,49,0
1,53520,Note_off_c,9,50,0
1,53520,Note_on_c,9,46,100
1,53520,Note_on_c,9,49,100
1,53520,Note_on_c,9,50,100
1,53640,Note_off_c,9,46,0
1,53640,Note_off_c,9,49,0
1,53640,Note_off_c,9,50,0
1,53640,Note_on_c,9,46,100
1,53640,Note_on_c,9,49,100
1,53640,Note_on_c,9,50,100
1,53760,Note_off_c,9,46,0
1,53760,Note_off_c,9,49,0
1,53760,Note_off_c,9,50,0
1,53760,Note_on_c,9,46,100
1,53760,Note_on_c,9,49,100
1,53760,Note_on_c,9,50,100
1,53880,Note_off_c,9,46,0
1,53880,Note_off_c,9,49,0
1,53880,Note_off_c,9,50,0
1,53880,Note_on_c,9,46,100
1,53880,Note_on_c,9,49,100
1,53880,Note_on_c,9,50,100
1,54000,Note_off_c,9,46,0
1,54000,Note_off_c,9,49,0
1,54000,Note_off_c,9,50,0
1,54000,Note_on_c,9,46,100
1,54000,Note_on_c,9,49,100
1,54000,Note_on_c,9,50,100
1,54120,Note_off_c,9,46,0
1,54120,Note_off_c,9,49,0
1,54120,Note_off_c,9,50,0
1,54120,Note_on_c,9,46,100
1,54120,Note_on_c,9,49,100
1,54120,Note_on_c,9,50,100
1,54240,Note_off_c,9,46,0
1,54240,Note_off_c,9,49,0
1,54240,Note_off_c,9,50,0
1,54240,Note_on_c,9,46,100
1,54240,Note_on_c,9,49,100
1,54240,Note_on_c,9,50,100
1,54360,Note_off_c,9,46,0
1,54360,Note_off_c,9,49,0
1,54360,Note_off_c,9,50,0
1,54360,Note_on_c,9,46,100
1,54360,Note_on_c,9,49,100
1,54360,Note_on_c,9,50,100
1,54480,Note_off_c,9,46,0
1,54480,Note_off_c,9,49,0
1,54480,Note_off_c,9,50,0
1,54480,Note_on_c,9,46,100
1,54480,Note_on_c,9,49,100
1,54480,Note_on_c,9,50,100
1,54600,Note_off_c,9,46,0
1,54600,Note_off_c,9,49,0
1,54600,Note_off_c,9,50,0
1,54600,Note_on_c,9,46,100
1,54600,Note_on_c,9,49,100
1,54600,Note_on_c,9,50,100
1,54720,Note_off_c,9,46,0
1,54720,Note_off_c,9,49,0
1,54720,Note_off_c,9,50,0
1,54720,Note_on_c,9,46,100
1,54720,Note_on_c,9,49,100
1,54720,Note_on_c,9,50,100
1,54840,Note_off_c,9,46,0
1,54840,Note_off_c,9,49,0
1,54840,Note_off_c,9,50,0
1,54840,Note_on_c,9,46,100
1,54840,Note_on_c,9,49,100
1,54840,Note_on_c,9,50,100
1,54960,Note_off_c,9,46,0
1,54960,Note_off_c,9,49,0
1,54960,Note_off_c,9,50,0
1,54960,Note_on_c,9,46,100
1,54960,Note_on_c,9,49,100
1,54960,Note_on_c,9,50,100
1,55080,Note_off_c,9,46,0
1,55080,Note_off_c,9,49,0
1,55080,Note_off_c,9,50,0
1,55080,Note_on_c,9,46,100
1,55080,Note_on_c,9,49,100
1,55080,Note_on_c,9,50,100
1,55200,Note_off_c,9,46,0
1,55200,Note_off_c,9,49,0
1,55200,Note_off_c,9,50,0
1,55200,Note_on_c,9,46,100
1,55200,Note_on_c,9,49,100
1,55200,Note_on_c,9,50,100
1,55320,Note_off_c,9,46,0
1,55320,Note_off_c,9,49,0
1,55320,Note_off_c,9,50,0
1,55320,Note_on_c,9,46,100
1,55320,Note_on_c,9,49,100
1,55320,Note_on_c,9,50,100
1,55440,Note_off_c,9,46,0
1,55440,Note_off_c,9,49,0
1,55440,Note_off_c,9,50,0
1,55440,Note_on_c,9,46,100
1,55440,Note_on_c,9,49,100
1,55440,Note_on_c,9,50,100
1,55560,Note_off_c,9,46,0
1,55560,Note_off_c,9,49,0
1,55560,Note_off_c,9,50,0
1,55560,Note_on_c,9,46,100
1,55560,Note_on_c,9,49,100
1,55560,Note_on_c,9,50,100
1,55680,Note_off_c,9,46,0
1,55680,Note_off_c,9,49,0
1,55680,Note_off_c,9,50,0
1,55680,Note_on_c,9,46,100
1,55680,Note_on_c,9,49,100
1,55680,Note_on_c,9,50,100
1,55800,Note_off_c,9,46,0
1,55800,Note_off_c,9,49,0
1,55800,Note_off_c,9,50,0
1,55800,Note_on_c,9,46,100
1,55800,Note_on_c,9,49,100
1,55800,Note_on_c,9,50,100
1,55920,Note_off_c,9,46,0
1,55920,Note_off_c,9,49,0
1,55920,Note_off_c,9,50,0
1,55920,Note_on_c,9,46,100
1,55920,Note_on_c,9,49,100
1,55920,Note_on_c,9,50,100
1,56040,Note_off_c,9,46,0
1,56040,Note_off_c,9,49,0
1,56040,Note_off_c,9,50,0
1,56040,Note_on_c,9,46,100
1,56040,Note_on_c,9,49,100
1,56040,Note_on_c,9,50,100
1,56160,Note_off_c,9,46,0
1,56160,Note_off_c,9,49,0
1,56160,Note_off_c,9,50,0
1,56160,Note_on_c,9,46,100
1,56160,Note_on_c,9,49,100
1,56160,Note_on_c,9,50,100
1,56280,Note_off_c,9,46,0
1,56280,Note_off_c,9,49,0
1,56280,Note_off_c,9,50,0
1,56280,Note_on_c,9,46,100
1,56280,Note_on_c,9,49,100
1,56280,Note_on_c,9,50,100
1,56400,Note_off_c,9,46,0
1,56400,Note_off_c,9,49,0
1,56400,Note_off_c,9,50,0
1,56400,Note_on_c,9,46,100
1,56400,Note_on_c,9,49,100
1,56400,Note_on_c,9,50,100
1,56520,Note_off_c,9,46,0
1,56520,Note_off_c,9,49,0
1,56520,Note_off_c,9,50,0
1,56520,Note_on_c,9,46,100
1,56520,Note_on_c,9,49,100
1,56520,Note_on_c,9,50,100
1,56640,Note_off_c,9,46,0
1,56640,Note_off_c,9,49,0
1,56640,Note_off_c,9,50,0
1,56640,Note_on_c,9,46,100
1,56640,Note_on_c,9,49,100
1,56640,Note_on_c,9,50,100
1,56760,Note_off_c,9,46,0
1,56760,Note_off_c,9,49,0
1,56760,Note_off_c,9,50,0
1,56760,Note_on_c,9,46,100
1,56760,Note_on_c,9,49,100
1,56760,Note_on_c,9,50,100
1,56880,Note_off_c,9,46,0
1,56880,Note_off_c,9,49,0
1,56880,Note_off_c,9,50,0
1,56880,Note_on_c,9,46,100
1,56880,Note_on_c,9,49,100
1,56880,Note_on_c,9,50,100
1,57000,Note_off_c,9,46,0
1,57000,Note_off_c,9,49,0
1,57000,Note_off_c,9,50,0
1,57000,Note_on_c,9,46,100
1,57000,Note_on_c,9,49,100
1,57000,Note_on_c,9,50,100
1,57120,Note_off_c,9,46,0
1,57120,Note_off_c,9,49,0
1,57120,Note_off_c,9,50,0
1,57120,Note_on_c,9,46,100
1,57120,Note_on_c,9,49,100
1,57120,Note_on_c,9,50,100
1,57240,Note_off_c,9,46,0
1,57240,Note_off_c,9,49,0
1,57240,Note_off_c,9,50,0
1,57240,Note_on_c,9,46,100
1,57240,Note_on_c,9,49,100
1,57240,Note_on_c,9,50,100
1,57360,Note_off_c,9,46,0
1,57360,Note_off_c,9,49,0
1,57360,Note_off_c,9,50,0
1,57360,Note_on_c,9,46,100
1,57360,Note_on_c,9,49,100
1,57360,Note_on_c,9,50,100
1,57480,Note_off_c,9,46,0
1,57480,Note_off_c,9,49,0
1,57480,Note_off_c,9,50,0
1,57480,Note_on_c,9,46,100
1,57480,Note_on_c,9,49,100
1,57480,Note_on_c,9,50,100
1,57600,Note_off_c,9,46,0
1,57600,Note_off_c,9,49,0
1,57600,Note_off_c,9,50,0
1,57600,Note_on_c,9,46,100
1,57600,Note_on_c,9,49,100
1,57600,Note_on_c,9,50,100
1,57720,Note_off_c,9,46,0
1,57720,Note_off_c,9,49,0
1,57720,Note_off_c,9,50,0
1,57720,Note_on_c,9,46,100
1,57720,Note_on_c,9,49,100
1,57720,Note_on_c,9,50,100
1,57840,Note_off_c,9,46,0
1,57840,Note_off_c,9,49,0
1,57840,Note_off_c,9,50,0
1,57840,Note_on_c,9,46,100
1,57840,Note_on_c,9,49,100
1,57840,Note_on_c,9,50,100
1,57960,Note_off_c,9,46,0
1,57960,Note_off_c,9,49,0
1,57960,Note_off_c,9,50,0
1,57960,Note_on_c,9,46,100
1,57960,Note_on_c,9,49,100
1,57960,Note_on_c,9,50,100
1,58080,Note_off_c,9,46,0
1,58080,Note_off_c,9,49,0
1,58080,Note_off_c,9,50,0
1,58080,Note_on_c,9,46,100
1,58080,Note_on_c,9,49,100
1,58080,Note_on_c,9,50,100
1,58200,Note_off_c,9,46,0
1,58200,Note_off_c,9,49,0
1,58200,Note_off_c,9,50,0
1,58200,Note_on_c,9,46,100
1,58200,Note_on_c,9,49,100
1,58200,Note_on_c,9,50,100
1,58320,Note_off_c,9,46,0
1,58320,Note_off_c,9,49,0
1,58320,Note_off_c,9,50,0
1,58320,Note_on_c,9,46,100
1,58320,Note_on_c,9,49,100
1,58320,Note_on_c,9,50,100
1,58440,Note_off_c,9,46,0
1,58440,Note_off_c,9,49,0
1,58440,Note_off_c,9,50,0
1,58440,Note_on_c,9,46,100
1,58440,Note_on_c,9,49,100
1,58440,Note_on_c,9,50,100
1,58560,Note_off_c,9,46,0
1,58560,Note_off_c,9,49,0
1,58560,Note_off_c,9,50,0
1,58560,Note_on_c,9,46,100
1,58560,Note_on_c,9,49,100
1,58560,Note_on_c,9,50,100
1,58680,Note_off_c,9,46,0
1,58680,Note_off_c,9,49,0
1,58680,Note_off_c,9,50,0
1,58680,Note_on_c,9,46,100
1,58680,Note_on_c,9,49,100
1,58680,Note_on_c,9,50,100
1,58800,Note_off_c,9,46,0
1,58800,Note_off_c,9,49,0
1,58800,Note_off_c,9,50,0
1,58800,Note_on_c,9,46,100
1,58800,Note_on_c,9,49,100
1,58800,Note_on_c,9,50,100
1,58920,Note_off_c,9,46,0
1,58920,Note_off_c,9,49,0
1,58920,Note_off_c,9,50,0
1,58920,Note_on_c,9,46,100
1,58920,Note_on_c,9,49,100
1,58920,Note_on_c,9,50,100
1,59040,Note_off_c,9,46,0
1,59040,Note_off_c,9,49,0
1,59040,Note_off_c,9,50,0
1,59040,Note_on_c,9,46,100
1,59040,Note_on_c,9,49,100
1,59040,Note_on_c,9,50,100
1,59160,Note_off_c,9,46,0
1,59160,Note_off_c,9,49,0
1,59160,Note_off_c,9,50,0
1,59160,Note_on_c,9,49,100
1,59160,Note_on_c,9,50,100
1,59280,Note_off_c,9,49,0
1,59280,Note_off_c,9,50,0
1,59280,Note_on_c,9,49,100
1,59280,Note_on_c,9,50,100
1,59400,Note_off_c,9,49,0
1,59400,Note_off_c,9,50,0
1,59400,Note_on_c,9,49,100
1,59400,Note_on_c,9,50,100
1,59520,Note_off_c,9,49,0
1,59520,Note_off_c,9,50,0
1,59520,Note_on_c,9,49,100
1,59520,Note_on_c,9,50,100
1,59640,Note_off_c,9,49,0
1,59640,Note_off_c,9,50,0
1,59640,Note_on_c,9,49,100
1,59640,Note_on_c,9,50,100
1,59760,Note_off_c,9,49,0
1,59760,Note_off_c,9,50,0
1,59760,Note_on_c,9,49,100
1,59760,Note_on_c,9,50,100
1,59880,Note_off_c,9,49,0
1,59880,Note_off_c,9,50,0
1,59880,Note_on_c,9,49,100
1,59880,Note_on_c,9,50,100
1,60000,Note_off_c,9,49,0
1,60000,Note_off_c,9,50,0
1,60000,Note_on_c,9,49,100
1,60000,Note_on_c,9,50,100
1,60120,Note_off_c,9,49,0
1,60120,Note_off_c,9,50,0
1,60120,Note_on_c,9,49,100
1,60120,Note_on_c,9,50,100
1,60240,Note_off_c,9,49,0
1,60240,Note_off_c,9,50,0
1,60240,Note_on_c,9,49,100
1,60240,Note_on_c,9,50,100
1,60360,Note_off_c,9,49,0
1,60360,Note_off_c,9,50,0
1,60360,Note_on_c,9,49,100
1,60360,Note_on_c,9,50,100
1,60480,Note_off_c,9,49,0
1,60480,Note_off_c,9,50,0
1,60480,Note_on_c,9,49,100
1,60480,Note_on_c,9,50,100
1,60600,Note_off_c,9,49,0
1,60600,Note_off_c,9,50,0
1,60600,Note_on_c,9,49,100
1,60600,Note_on_c,9,50,100
1,60720,Note_off_c,9,49,0
1,60720,Note_off_c,9,50,0
1,60720,Note_on_c,9,49,100
1,60720,Note_on_c,9,50,100
1,60840,Note_off_c,9,49,0
1,60840,Note_off_c,9,50,0
1,60840,Note_on_c,9,49,100
1,60840,Note_on_c,9,50,100
1,60960,Note_off_c,9,49,0
1,60960,Note_off_c,9,50,0
1,60960,Note_on_c,9,49,100
1,60960,Note_on_c,9,50,100
1,61080,Note_off_c,9,49,0
1,61080,Note_off_c,9,50,0
1,61080,Note_on_c,9,49,100
1,61080,Note_on_c,9,50,100
1,61200,Note_off_c,9,49,0
1,61200,Note_off_c,9,50,0
1,61200,Note_on_c,9,49,100
1,61200,Note_on_c,9,50,100
1,61320,Note_off_c,9,49,0
1,61320,Note_off_c,9,50,0
1,61320,Note_on_c,9,49,100
1,61320,Note_on_c,9,50,100
1,61440,Note_off_c,9,49,0
1,61440,Note_off_c,9,50,0
1,61440,Note_on_c,9,49,100
1,61440,Note_on_c,9,50,100
1,61560,Note_off_c,9,49,0
1,61560,Note_off_c,9,50,0
1,61560,Note_on_c,9,49,100
1,61560,Note_on_c,9,50,100
1,61680,Note_off_c,9,49,0
1,61680,Note_off_c,9,50,0
1,61680,Note_on_c,9,49,100
1,61680,Note_on_c,9,50,100
1,61800,Note_off_c,9,49,0
1,61800,Note_off_c,9,50,0
1,61800,Note_on_c,9,49,100
1,61800,Note_on_c,9,50,100
1,61920,Note_off_c,9,49,0
1,61920,Note_off_c,9,50,0
1,63000,Note_on_c,9,35,100
1,63120,Note_off_c,9,35,0
1,63120,Note_on_c,9,35,100
1,63240,Note_off_c,9,35,0
1,63240,Note_on_c,9,35,100
1,63360,Note_off_c,9,35,0
1,63360,Note_on_c,9,35,100
1,63480,Note_off_c,9,35,0
1,63480,Note_on_c,9,35,100
1,63600,Note_off_c,9,35,0
1,63600,Note_on_c,9,35,100
1,63720,Note_off_c,9,35,0
1,63720,Note_on_c,9,35,100
1,63840,Note_off_c,9,35,0
1,63840,Note_on_c,9,35,100
1,63960,Note_off_c,9,35,0
1,63960,Note_on_c,9,35,100
1,64080,Note_off_c,9,35,0
1,64080,Note_on_c,9,35,100
1,64080,Note_on_c,9,38,100
1,64200,Note_off_c,9,35,0
1,64200,Note_off_c,9,38,0
1,64200,Note_on_c,9,35,100
1,64200,Note_on_c,9,38,100
1,64320,Note_off_c,9,35,0
1,64320,Note_off_c,9,38,0
1,64320,Note_on_c,9,35,100
1,64320,Note_on_c,9,38,100
1,64440,Note_off_c,9,35,0
1,64440,Note_off_c,9,38,0
1,64440,Note_on_c,9,35,100
1,64440,Note_on_c,9,38,100
1,64560,Note_off_c,9,35,0
1,64560,Note_off_c,9,38,0
1,64560,Note_on_c,9,35,100
1,64560,Note_on_c,9,38,100
1,64680,Note_off_c,9,35,0
1,64680,Note_off_c,9,38,0
1,64680,Note_on_c,9,35,100
1,64680,Note_on_c,9,38,100
1,64800,Note_off_c,9,35,0
1,64800,Note_off_c,9,38,0
1,64800,Note_on_c,9,35,100
1,64800,Note_on_c,9,38,100
1,64920,Note_off_c,9,35,0
1,64920,Note_off_c,9,38,0
1,64920,Note_on_c,9,35,100
1,64920,Note_on_c,9,38,100
1,65040,Note_off_c,9,35,0
1,65040,Note_off_c,9,38,0
1,65040,Note_on_c,9,35,100
1,65040,Note_on_c,9,38,100
1,65160,Note_off_c,9,35,0
1,65160,Note_off_c,9,38,0
1,65160,Note_on_c,9,35,100
1,65160,Note_on_c,9,38,100
1,65280,Note_off_c,9,35,0
1,65280,Note_off_c,9,38,0
1,65280,Note_on_c,9,35,100
1,65280,Note_on_c,9,38,100
1,65400,Note_off_c,9,35,0
1,65400,Note_off_c,9,38,0
1,65400,Note_on_c,9,35,100
1,65400,Note_on_c,9,38,100
1,65520,Note_off_c,9,35,0
1,65520,Note_off_c,9,38,0
1,65520,Note_on_c,9,35,100
1,65520,Note_on_c,9,38,100
1,65640,Note_off_c,9,35,0
1,65640,Note_off_c,9,38,0
1,65640,Note_on_c,9,35,100
1,65640,Note_on_c,9,38,100
1,65760,Note_off_c,9,35,0
1,65760,Note_off_c,9,38,0
1,65760,Note_on_c,9,35,100
1,65760,Note_on_c,9,38,100
1,65880,Note_off_c,9,35,0
1,65880,Note_off_c,9,38,0
1,65880,Note_on_c,9,35,100
1,65880,Note_on_c,9,38,100
1,66000,Note_off_c,9,35,0
1,66000,Note_off_c,9,38,0
1,66000,Note_on_c,9,35,100
1,66000,Note_on_c,9,38,100
1,66120,Note_off_c,9,35,0
1,66120,Note_off_c,9,38,0
1,66120,Note_on_c,9,35,100
1,66120,Note_on_c,9,38,100
1,66240,Note_off_c,9,35,0
1,66240,Note_off_c,9,38,0
1,66240,Note_on_c,9,35,100
1,66240,Note_on_c,9,38,100
1,66360,Note_off_c,9,35,0
1,66360,Note_off_c,9,38,0
1,66360,Note_on_c,9,35,100
1,66360,Note_on_c,9,38,100
1,66480,Note_off_c,9,35,0
1,66480,Note_off_c,9,38,0
1,66480,Note_on_c,9,35,100
1,66480,Note_on_c,9,38,100
1,66600,Note_off_c,9,35,0
1,66600,Note_off_c,9,38,0
1,66600,Note_on_c,9,35,100
1,66600,Note_on_c,9,38,100
1,66720,Note_off_c,9,35,0
1,66720,Note_off_c,9,38,0
1,66720,Note_on_c,9,35,100
1,66720,Note_on_c,9,38,100
1,66840,Note_off_c,9,35,0
1,66840,Note_off_c,9,38,0
1,66840,Note_on_c,9,35,100
1,66840,Note_on_c,9,38,100
1,66960,Note_off_c,9,35,0
1,66960,Note_off_c,9,38,0
1,66960,Note_on_c,9,35,100
1,66960,Note_on_c,9,38,100
1,67080,Note_off_c,9,35,0
1,67080,Note_off_c,9,38,0
1,67080,Note_on_c,9,35,100
1,67080,Note_on_c,9,38,100
1,67200,Note_off_c,9,35,0
1,67200,Note_off_c,9,38,0
1,67200,Note_on_c,9,35,100
1,67200,Note_on_c,9,38,100
1,67320,Note_off_c,9,35,0
1,67320,Note_off_c,9,38,0
1,67320,Note_on_c,9,35,100
1,67320,Note_on_c,9,38,100
1,67440,Note_off_c,9,35,0
1,67440,Note_off_c,9,38,0
1,67440,Note_on_c,9,35,100
1,67440,Note_on_c,9,38,100
1,67560,Note_off_c,9,35,0
1,67560,Note_off_c,9,38,0
1,67560,Note_on_c,9,35,100
1,67560,Note_on_c,9,38,100
1,67680,Note_off_c,9,35,0
1,67680,Note_off_c,9,38,0
1,67680,Note_on_c,9,35,100
1,67680,Note_on_c,9,38,100
1,67800,Note_off_c,9,35,0
1,67800,Note_off_c,9,38,0
1,67800,Note_on_c,9,35,100
1,67800,Note_on_c,9,38,100
1,67920,Note_off_c,9,35,0
1,67920,Note_off_c,9,38,0
1,67920,Note_on_c,9,35,100
1,67920,Note_on_c,9,38,100
1,68040,Note_off_c,9,35,0
1,68040,Note_off_c,9,38,0
1,68040,Note_on_c,9,35,100
1,68040,Note_on_c,9,38,100
1,68160,Note_off_c,9,35,0
1,68160,Note_off_c,9,38,0
1,68160,Note_on_c,9,35,100
1,68160,Note_on_c,9,38,100
1,68280,Note_off_c,9,35,0
1,68280,Note_off_c,9,38,0
1,68280,Note_on_c,9,35,100
1,68280,Note_on_c,9,38,100
1,68400,Note_off_c,9,35,0
1,68400,Note_off_c,9,38,0
1,68400,Note_on_c,9,35,100
1,68400,Note_on_c,9,38,100
1,68520,Note_off_c,9,35,0
1,68520,Note_off_c,9,38,0
1,68520,Note_on_c,9,35,100
1,68520,Note_on_c,9,38,100
1,68640,Note_off_c,9,35,0
1,68640,Note_off_c,9,38,0
1,68640,Note_on_c,9,35,100
1,68640,Note_on_c,9,38,100
1,68760,Note_off_c,9,35,0
1,68760,Note_off_c,9,38,0
1,68760,Note_on_c,9,35,100
1,68760,Note_on_c,9,38,100
1,68880,Note_off_c,9,35,0
1,68880,Note_off_c,9,38,0
1,68880,Note_on_c,9,35,100
1,68880,Note_on_c,9,38,100
1,69000,Note_off_c,9,35,0
1,69000,Note_off_c,9,38,0
1,69000,Note_on_c,9,35,100
1,69000,Note_on_c,9,38,100
1,69120,Note_off_c,9,35,0
1,69120,Note_off_c,9,38,0
1,69120,Note_on_c,9,35,100
1,69120,Note_on_c,9,38,100
1,69240,Note_off_c,9,35,0
1,69240,Note_off_c,9,38,0
1,69240,Note_on_c,9,35,100
1,69240,Note_on_c,9,38,100
1,69360,Note_off_c,9,35,0
1,69360,Note_off_c,9,38,0
1,69360,Note_on_c,9,35,100
1,69360,Note_on_c,9,38,100
1,69480,Note_off_c,9,35,0
1,69480,Note_off_c,9,38,0
1,69480,Note_on_c,9,35,100
1,69480,Note_on_c,9,38,100
1,69600,Note_off_c,9,35,0
1,69600,Note_off_c,9,38,0
1,69600,Note_on_c,9,35,100
1,69600,Note_on_c,9,38,100
1,69720,Note_off_c,9,35,0
1,69720,Note_off_c,9,38,0
1,69720,Note_on_c,9,35,100
1,69720,Note_on_c,9,38,100
1,69840,Note_off_c,9,35,0
1,69840,Note_off_c,9,38,0
1,69840,Note_on_c,9,35,100
1,69840,Note_on_c,9,38,100
1,69960,Note_off_c,9,35,0
1,69960,Note_off_c,9,38,0
1,69960,Note_on_c,9,35,100
1,69960,Note_on_c,9,38,100
1,70080,Note_off_c,9,35,0
1,70080,Note_off_c,9,38,0
1,70080,Note_on_c,9,35,100
1,70080,Note_on_c,9,38,100
1,70200,Note_off_c,9,35,0
1,70200,Note_off_c,9,38,0
1,70200,Note_on_c,9,35,100
1,70200,Note_on_c,9,38,100
1,70320,Note_off_c,9,35,0
1,70320,Note_off_c,9,38,0
1,70320,Note_on_c,9,35,100
1,70320,Note_on_c,9,38,100
1,70440,Note_off_c,9,35,0
1,70440,Note_off_c,9,38,0
1,70440,Note_on_c,9,35,100
1,70440,Note_on_c,9,38,100
1,70560,Note_off_c,9,35,0
1,70560,Note_off_c,9,38,0
1,70560,Note_on_c,9,35,100
1,70560,Note_on_c,9,38,100
1,70680,Note_off_c,9,35,0
1,70680,Note_off_c,9,38,0
1,70680,Note_on_c,9,46,100
1,70680,Note_on_c,9,35,100
1,70680,Note_on_c,9,38,100
1,70800,Note_off_c,9,46,0
1,70800,Note_off_c,9,35,0
1,70800,Note_off_c,9,38,0
1,70800,Note_on_c,9,46,100
1,70800,Note_on_c,9,35,100
1,70800,Note_on_c,9,38,100
1,70920,Note_off_c,9,46,0
1,70920,Note_off_c,9,35,0
1,70920,Note_off_c,9,38,0
1,70920,Note_on_c,9,46,100
1,70920,Note_on_c,9,35,100
1,70920,Note_on_c,9,38,100
1,71040,Note_off_c,9,46,0
1,71040,Note_off_c,9,35,0
1,71040,Note_off_c,9,38,0
1,71040,Note_on_c,9,46,100
1,71040,Note_on_c,9,35,100
1,71040,Note_on_c,9,38,100
1,71160,Note_off_c,9,46,0
1,71160,Note_off_c,9,35,0
1,71160,Note_off_c,9,38,0
1,71160,Note_on_c,9,46,100
1,71160,Note_on_c,9,35,100
1,71160,Note_on_c,9,38,100
1,71280,Note_off_c,9,46,0
1,71280,Note_off_c,9,35,0
1,71280,Note_off_c,9,38,0
1,71280,Note_on_c,9,46,100
1,71280,Note_on_c,9,35,100
1,71280,Note_on_c,9,38,100
1,71400,Note_off_c,9,46,0
1,71400,Note_off_c,9,35,0
1,71400,Note_off_c,9,38,0
1,71400,Note_on_c,9,46,100
1,71400,Note_on_c,9,35,100
1,71400,Note_on_c,9,38,100
1,71520,Note_off_c,9,46,0
1,71520,Note_off_c,9,35,0
1,71520,Note_off_c,9,38,0
1,71520,Note_on_c,9,46,100
1,71520,Note_on_c,9,35,100
1,71520,Note_on_c,9,38,100
1,71640,Note_off_c,9,46,0
1,71640,Note_off_c,9,35,0
1,71640,Note_off_c,9,38,0
1,71640,Note_on_c,9,46,100
1,71640,Note_on_c,9,35,100
1,71640,Note_on_c,9,38,100
1,71760,Note_off_c,9,46,0
1,71760,Note_off_c,9,35,0
1,71760,Note_off_c,9,38,0
1,71760,Note_on_c,9,46,100
1,71760,Note_on_c,9,35,100
1,71760,Note_on_c,9,38,100
1,71880,Note_off_c,9,46,0
1,71880,Note_off_c,9,35,0
1,71880,Note_off_c,9,38,0
1,71880,Note_on_c,9,46,100
1,71880,Note_on_c,9,35,100
1,71880,Note_on_c,9,38,100
1,72000,Note_off_c,9,46,0
1,72000,Note_off_c,9,35,0
1,72000,Note_off_c,9,38,0
1,72000,Note_on_c,9,46,100
1,72000,Note_on_c,9,35,100
1,72000,Note_on_c,9,38,100
1,72120,Note_off_c,9,46,0
1,72120,Note_off_c,9,35,0
1,72120,Note_off_c,9,38,0
1,72120,Note_on_c,9,46,100
1,72120,Note_on_c,9,35,100
1,72120,Note_on_c,9,38,100
1,72240,Note_off_c,9,46,0
1,72240,Note_off_c,9,35,0
1,72240,Note_off_c,9,38,0
1,72240,Note_on_c,9,46,100
1,72240,Note_on_c,9,35,100
1,72240,Note_on_c,9,38,100
1,72360,Note_off_c,9,46,0
1,72360,Note_off_c,9,35,0
1,72360,Note_off_c,9,38,0
1,72360,Note_on_c,9,46,100
1,72360,Note_on_c,9,35,100
1,72360,Note_on_c,9,38,100
1,72480,Note_off_c,9,46,0
1,72480,Note_off_c,9,35,0
1,72480,Note_off_c,9,38,0
1,72480,Note_on_c,9,46,100
1,72480,Note_on_c,9,35,100
1,72480,Note_on_c,9,38,100
1,72600,Note_off_c,9,46,0
1,72600,Note_off_c,9,35,0
1,72600,Note_off_c,9,38,0
1,72600,Note_on_c,9,46,100
1,72600,Note_on_c,9,35,100
1,72600,Note_on_c,9,38,100
1,72720,Note_off_c,9,46,0
1,72720,Note_off_c,9,35,0
1,72720,Note_off_c,9,38,0
1,72720,Note_on_c,9,46,100
1,72720,Note_on_c,9,35,100
1,72720,Note_on_c,9,38,100
1,72840,Note_off_c,9,46,0
1,72840,Note_off_c,9,35,0
1,72840,Note_off_c,9,38,0
1,72840,Note_on_c,9,46,100
1,72840,Note_on_c,9,35,100
1,72840,Note_on_c,9,38,100
1,72960,Note_off_c,9,46,0
1,72960,Note_off_c,9,35,0
1,72960,Note_off_c,9,38,0
1,72960,Note_on_c,9,46,100
1,72960,Note_on_c,9,35,100
1,72960,Note_on_c,9,38,100
1,73080,Note_off_c,9,46,0
1,73080,Note_off_c,9,35,0
1,73080,Note_off_c,9,38,0
1,73080,Note_on_c,9,46,100
1,73080,Note_on_c,9,35,100
1,73080,Note_on_c,9,38,100
1,73200,Note_off_c,9,46,0
1,73200,Note_off_c,9,35,0
1,73200,Note_off_c,9,38,0
1,73200,Note_on_c,9,46,100
1,73200,Note_on_c,9,35,100
1,73200,Note_on_c,9,38,100
1,73320,Note_off_c,9,46,0
1,73320,Note_off_c,9,35,0
1,73320,Note_off_c,9,38,0
1,73320,Note_on_c,9,46,100
1,73320,Note_on_c,9,35,100
1,73320,Note_on_c,9,38,100
1,73440,Note_off_c,9,46,0
1,73440,Note_off_c,9,35,0
1,73440,Note_off_c,9,38,0
1,73440,Note_on_c,9,46,100
1,73440,Note_on_c,9,35,100
1,73440,Note_on_c,9,38,100
1,73560,Note_off_c,9,46,0
1,73560,Note_off_c,9,35,0
1,73560,Note_off_c,9,38,0
1,73560,Note_on_c,9,46,100
1,73560,Note_on_c,9,35,100
1,73560,Note_on_c,9,38,100
1,73680,Note_off_c,9,46,0
1,73680,Note_off_c,9,35,0
1,73680,Note_off_c,9,38,0
1,73680,Note_on_c,9,46,100
1,73680,Note_on_c,9,35,100
1,73680,Note_on_c,9,38,100
1,73800,Note_off_c,9,46,0
1,73800,Note_off_c,9,35,0
1,73800,Note_off_c,9,38,0
1,73800,Note_on_c,9,46,100
1,73800,Note_on_c,9,35,100
1,73800,Note_on_c,9,38,100
1,73920,Note_off_c,9,46,0
1,73920,Note_off_c,9,35,0
1,73920,Note_off_c,9,38,0
1,73920,Note_on_c,9,46,100
1,73920,Note_on_c,9,35,100
1,73920,Note_on_c,9,38,100
1,74040,Note_off_c,9,46,0
1,74040,Note_off_c,9,35,0
1,74040,Note_off_c,9,38,0
1,74040,Note_on_c,9,46,100
1,74040,Note_on_c,9,35,100
1,74040,Note_on_c,9,38,100
1,74160,Note_off_c,9,46,0
1,74160,Note_off_c,9,35,0
1,74160,Note_off_c,9,38,0
1,74160,Note_on_c,9,46,100
1,74160,Note_on_c,9,35,100
1,74160,Note_on_c,9,38,100
1,74280,Note_off_c,9,46,0
1,74280,Note_off_c,9,35,0
1,74280,Note_off_c,9,38,0
1,74280,Note_on_c,9,46,100
1,74280,Note_on_c,9,35,100
1,74280,Note_on_c,9,38,100
1,74400,Note_off_c,9,46,0
1,74400,Note_off_c,9,35,0
1,74400,Note_off_c,9,38,0
1,74400,Note_on_c,9,46,100
1,74400,Note_on_c,9,35,100
1,74400,Note_on_c,9,38,100
1,74520,Note_off_c,9,46,0
1,74520,Note_off_c,9,35,0
1,74520,Note_off_c,9,38,0
1,74520,Note_on_c,9,46,100
1,74520,Note_on_c,9,35,100
1,74520,Note_on_c,9,38,100
1,74640,Note_off_c,9,46,0
1,74640,Note_off_c,9,35,0
1,74640,Note_off_c,9,38,0
1,74640,Note_on_c,9,46,100
1,74640,Note_on_c,9,35,100
1,74640,Note_on_c,9,38,100
1,74760,Note_off_c,9,46,0
1,74760,Note_off_c,9,35,0
1,74760,Note_off_c,9,38,0
1,74760,Note_on_c,9,46,100
1,74760,Note_on_c,9,35,100
1,74760,Note_on_c,9,38,100
1,74880,Note_off_c,9,46,0
1,74880,Note_off_c,9,35,0
1,74880,Note_off_c,9,38,0
1,74880,Note_on_c,9,46,100
1,74880,Note_on_c,9,35,100
1,74880,Note_on_c,9,38,100
1,75000,Note_off_c,9,46,0
1,75000,Note_off_c,9,35,0
1,75000,Note_off_c,9,38,0
1,75000,Note_on_c,9,46,100
1,75000,Note_on_c,9,35,100
1,75000,Note_on_c,9,38,100
1,75120,Note_off_c,9,46,0
1,75120,Note_off_c,9,35,0
1,75120,Note_off_c,9,38,0
1,75120,Note_on_c,9,46,100
1,75120,Note_on_c,9,35,100
1,75120,Note_on_c,9,38,100
1,75240,Note_off_c,9,46,0
1,75240,Note_off_c,9,35,0
1,75240,Note_off_c,9,38,0
1,75240,Note_on_c,9,46,100
1,75240,Note_on_c,9,35,100
1,75240,Note_on_c,9,38,100
1,75360,Note_off_c,9,46,0
1,75360,Note_off_c,9,35,0
1,75360,Note_off_c,9,38,0
1,75360,Note_on_c,9,46,100
1,75360,Note_on_c,9,35,100
1,75360,Note_on_c,9,38,100
1,75480,Note_off_c,9,46,0
1,75480,Note_off_c,9,35,0
1,75480,Note_off_c,9,38,0
1,75480,Note_on_c,9,46,100
1,75480,Note_on_c,9,35,100
1,75480,Note_on_c,9,38,100
1,75600,Note_off_c,9,46,0
1,75600,Note_off_c,9,35,0
1,75600,Note_off_c,9,38,0
1,75600,Note_on_c,9,46,100
1,75600,Note_on_c,9,35,100
1,75720,Note_off_c,9,46,0
1,75720,Note_off_c,9,35,0
1,75720,Note_on_c,9,46,100
1,75720,Note_on_c,9,35,100
1,75840,Note_off_c,9,46,0
1,75840,Note_off_c,9,35,0
1,75840,Note_on_c,9,46,100
1,75840,Note_on_c,9,35,100
1,75960,Note_off_c,9,46,0
1,75960,Note_off_c,9,35,0
1,75960,Note_on_c,9,46,100
1,75960,Note_on_c,9,35,100
1,76080,Note_off_c,9,46,0
1,76080,Note_off_c,9,35,0
1,76080,Note_on_c,9,46,100
1,76080,Note_on_c,9,35,100
1,76200,Note_off_c,9,46,0
1,76200,Note_off_c,9,35,0
1,76200,Note_on_c,9,46,100
1,76200,Note_on_c,9,35,100
1,76320,Note_off_c,9,46,0
1,76320,Note_off_c,9,35,0
1,76320,Note_on_c,9,46,100
1,76320,Note_on_c,9,35,100
1,76440,Note_off_c,9,46,0
1,76440,Note_off_c,9,35,0
1,76440,Note_on_c,9,46,100
1,76440,Note_on_c,9,35,100
1,76560,Note_off_c,9,46,0
1,76560,Note_off_c,9,35,0
1,76560,Note_on_c,9,46,100
1,76560,Note_on_c,9,35,100
1,76680,Note_off_c,9,46,0
1,76680,Note_off_c,9,35,0
1,76680,Note_on_c,9,46,100
1,76680,Note_on_c,9,35,100
1,76800,Note_off_c,9,46,0
1,76800,Note_off_c,9,35,0
1,76800,Note_on_c,9,46,100
1,76800,Note_on_c,9,35,100
1,76920,Note_off_c,9,46,0
1,76920,Note_off_c,9,35,0
1,76920,Note_on_c,9,46,100
1,76920,Note_on_c,9,35,100
1,77040,Note_off_c,9,46,0
1,77040,Note_off_c,9,35,0
1,77040,Note_on_c,9,46,100
1,77040,Note_on_c,9,35,100
1,77160,Note_off_c,9,46,0
1,77160,Note_off_c,9,35,0
1,77160,Note_on_c,9,46,100
1,77160,Note_on_c,9,35,100
1,77280,Note_off_c,9,46,0
1,77280,Note_off_c,9,35,0
1,77280,Note_on_c,9,46,100
1,77280,Note_on_c,9,35,100
1,77400,Note_off_c,9,46,0
1,77400,Note_off_c,9,35,0
1,77400,Note_on_c,9,46,100
1,77400,Note_on_c,9,35,100
1,77520,Note_off_c,9,46,0
1,77520,Note_off_c,9,35,0
1,77520,Note_on_c,9,46,100
1,77520,Note_on_c,9,35,100
1,77640,Note_off_c,9,46,0
1,77640,Note_off_c,9,35,0
1,77640,Note_on_c,9,46,100
1,77640,Note_on_c,9,35,100
1,77760,Note_off_c,9,46,0
1,77760,Note_off_c,9,35,0
1,77760,Note_on_c,9,46,100
1,77760,Note_on_c,9,35,100
1,77880,Note_off_c,9,46,0
1,77880,Note_off_c,9,35,0
1,77880,Note_on_c,9,46,100
1,77880,Note_on_c,9,35,100
1,78000,Note_off_c,9,46,0
1,78000,Note_off_c,9,35,0
1,78000,Note_on_c,9,46,100
1,78000,Note_on_c,9,35,100
1,78120,Note_off_c,9,46,0
1,78120,Note_off_c,9,35,0
1,78120,Note_on_c,9,46,100
1,78120,Note_on_c,9,35,100
1,78240,Note_off_c,9,46,0
1,78240,Note_off_c,9,35,0
1,78240,Note_on_c,9,46,100
1,78240,Note_on_c,9,35,100
1,78360,Note_off_c,9,46,0
1,78360,Note_off_c,9,35,0
1,78360,Note_on_c,9,46,100
1,78360,Note_on_c,9,35,100
1,78480,Note_off_c,9,46,0
1,78480,Note_off_c,9,35,0
1,78480,Note_on_c,9,46,100
1,78480,Note_on_c,9,35,100
1,78600,Note_off_c,9,46,0
1,78600,Note_off_c,9,35,0
1,78600,Note_on_c,9,46,100
1,78600,Note_on_c,9,35,100
1,78720,Note_off_c,9,46,0
1,78720,Note_off_c,9,35,0
1,78720,Note_on_c,9,46,100
1,78720,Note_on_c,9,35,100
1,78840,Note_off_c,9,46,0
1,78840,Note_off_c,9,35,0
1,78840,Note_on_c,9,46,100
1,78840,Note_on_c,9,35,100
1,78960,Note_off_c,9,46,0
1,78960,Note_off_c,9,35,0
1,78960,Note_on_c,9,46,100
1,78960,Note_on_c,9,35,100
1,79080,Note_off_c,9,46,0
1,79080,Note_off_c,9,35,0
1,79080,Note_on_c,9,46,100
1,79080,Note_on_c,9,35,100
1,79200,Note_off_c,9,46,0
1,79200,Note_off_c,9,35,0
1,79200,Note_on_c,9,46,100
1,79200,Note_on_c,9,35,100
1,79320,Note_off_c,9,46,0
1,79320,Note_off_c,9,35,0
1,79320,Note_on_c,9,46,100
1,79320,Note_on_c,9,35,100
1,79440,Note_off_c,9,46,0
1,79440,Note_off_c,9,35,0
1,79440,Note_on_c,9,46,100
1,79440,Note_on_c,9,35,100
1,79560,Note_off_c,9,46,0
1,79560,Note_off_c,9,35,0
1,79560,Note_on_c,9,46,100
1,79560,Note_on_c,9,35,100
1,79680,Note_off_c,9,46,0
1,79680,Note_off_c,9,35,0
1,79680,Note_on_c,9,46,100
1,79680,Note_on_c,9,35,100
1,79800,Note_off_c,9,46,0
1,79800,Note_off_c,9,35,0
1,79800,Note_on_c,9,46,100
1,79800,Note_on_c,9,35,100
1,79920,Note_off_c,9,46,0
1,79920,Note_off_c,9,35,0
1,79920,Note_on_c,9,46,100
1,79920,Note_on_c,9,35,100
1,80040,Note_off_c,9,46,0
1,80040,Note_off_c,9,35,0
1,80040,Note_on_c,9,46,100
1,80040,Note_on_c,9,35,100
1,80160,Note_off_c,9,46,0
1,80160,Note_off_c,9,35,0
1,80160,Note_on_c,9,46,100
1,80160,Note_on_c,9,35,100
1,80280,Note_off_c,9,46,0
1,80280,Note_off_c,9,35,0
1,80280,Note_on_c,9,46,100
1,80280,Note_on_c,9,35,100
1,80400,Note_off_c,9,46,0
1,80400,Note_off_c,9,35,0
1,80400,Note_on_c,9,46,100
1,80400,Note_on_c,9,35,100
1,80520,Note_off_c,9,46,0
1,80520,Note_off_c,9,35,0
1,80520,Note_on_c,9,46,100
1,80520,Note_on_c,9,35,100
1,80640,Note_off_c,9,46,0
1,80640,Note_off_c,9,35,0
1,80640,Note_on_c,9,46,100
1,80640,Note_on_c,9,35,100
1,80760,Note_off_c,9,46,0
1,80760,Note_off_c,9,35,0
1,80760,Note_on_c,9,46,100
1,80760,Note_on_c,9,35,100
1,80880,Note_off_c,9,46,0
1,80880,Note_off_c,9,35,0
1,80880,Note_on_c,9,46,100
1,80880,Note_on_c,9,35,100
1,81000,Note_off_c,9,46,0
1,81000,Note_off_c,9,35,0
1,81000,Note_on_c,9,46,100
1,81000,Note_on_c,9,35,100
1,81120,Note_off_c,9,46,0
1,81120,Note_off_c,9,35,0
1,81120,Note_on_c,9,46,100
1,81120,Note_on_c,9,35,100
1,81240,Note_off_c,9,46,0
1,81240,Note_off_c,9,35,0
1,81240,Note_on_c,9,46,100
1,81240,Note_on_c,9,35,100
1,81360,Note_off_c,9,46,0
1,81360,Note_off_c,9,35,0
1,81360,Note_on_c,9,46,100
1,81360,Note_on_c,9,35,100
1,81480,Note_off_c,9,46,0
1,81480,Note_off_c,9,35,0
1,81480,Note_on_c,9,46,100
1,81480,Note_on_c,9,35,100
1,81600,Note_off_c,9,46,0
1,81600,Note_off_c,9,35,0
1,81600,Note_on_c,9,46,100
1,81600,Note_on_c,9,35,100
1,81720,Note_off_c,9,46,0
1,81720,Note_off_c,9,35,0
1,81720,Note_on_c,9,46,100
1,81720,Note_on_c,9,35,100
1,81840,Note_off_c,9,46,0
1,81840,Note_off_c,9,35,0
1,81840,Note_on_c,9,46,100
1,81840,Note_on_c,9,35,100
1,81960,Note_off_c,9,46,0
1,81960,Note_off_c,9,35,0
1,81960,Note_on_c,9,46,100
1,81960,Note_on_c,9,35,100
1,82080,Note_off_c,9,46,0
1,82080,Note_off_c,9,35,0
1,82080,Note_on_c,9,46,100
1,82080,Note_on_c,9,35,100
1,82200,Note_off_c,9,46,0
1,82200,Note_off_c,9,35,0
1,82200,Note_on_c,9,46,100
1,82200,Note_on_c,9,35,100
1,82320,Note_off_c,9,46,0
1,82320,Note_off_c,9,35,0
1,82320,Note_on_c,9,46,100
1,82320,Note_on_c,9,35,100
1,82440,Note_off_c,9,46,0
1,82440,Note_off_c,9,35,0
1,82440,Note_on_c,9,46,100
1,82440,Note_on_c,9,35,100
1,82560,Note_off_c,9,46,0
1,82560,Note_off_c,9,35,0
1,82560,Note_on_c,9,46,100
1,82560,Note_on_c,9,35,100
1,82680,Note_off_c,9,46,0
1,82680,Note_off_c,9,35,0
1,82680,Note_on_c,9,46,100
1,82680,Note_on_c,9,35,100
1,82800,Note_off_c,9,46,0
1,82800,Note_off_c,9,35,0
1,82800,Note_on_c,9,46,100
1,82800,Note_on_c,9,35,100
1,82920,Note_off_c,9,46,0
1,82920,Note_off_c,9,35,0
1,82920,Note_on_c,9,46,100
1,82920,Note_on_c,9,35,100
1,83040,Note_off_c,9,46,0
1,83040,Note_off_c,9,35,0
1,83040,Note_on_c,9,46,100
1,83040,Note_on_c,9,35,100
1,83160,Note_off_c,9,46,0
1,83160,Note_off_c,9,35,0
1,83160,Note_on_c,9,46,100
1,83160,Note_on_c,9,35,100
1,83280,Note_off_c,9,46,0
1,83280,Note_off_c,9,35,0
1,83280,Note_on_c,9,46,100
1,83280,Note_on_c,9,35,100
1,83400,Note_off_c,9,46,0
1,83400,Note_off_c,9,35,0
1,83400,Note_on_c,9,46,100
1,83400,Note_on_c,9,35,100
1,83520,Note_off_c,9,46,0
1,83520,Note_off_c,9,35,0
1,83520,Note_on_c,9,46,100
1,83640,Note_off_c,9,46,0
1,83640,Note_on_c,9,46,100
1,83760,Note_off_c,9,46,0
1,83760,Note_on_c,9,46,100
1,83880,Note_off_c,9,46,0
1,83880,Note_on_c,9,46,100
1,84000,Note_off_c,9,46,0
1,84000,Note_on_c,9,46,100
1,84120,Note_off_c,9,46,0
1,84120,Note_on_c,9,46,100
1,84240,Note_off_c,9,46,0
1,84240,Note_on_c,9,46,100
1,84360,Note_off_c,9,46,0
1,84360,Note_on_c,9,46,100
1,84480,Note_off_c,9,46,0
1,84480,Note_on_c,9,46,100
1,84600,Note_off_c,9,46,0
1,84600,Note_on_c,9,46,100
1,84720,Note_off_c,9,46,0
1,84720,Note_on_c,9,46,100
1,84840,Note_off_c,9,46,0
1,84840,Note_on_c,9,46,100
1,84960,Note_off_c,9,46,0
1,84960,Note_on_c,9,46,100
1,85080,Note_off_c,9,46,0
1,85080,Note_on_c,9,46,100
1,85200,Note_off_c,9,46,0
1,85200,Note_on_c,9,46,100
1,85320,Note_off_c,9,46,0
1,85320,Note_on_c,9,46,100
1,85440,Note_off_c,9,46,0
1,85440,Note_on_c,9,46,100
1,85560,Note_off_c,9,46,0
1,85560,Note_on_c,9,46,100
1,85680,Note_off_c,9,46,0
1,85680,Note_on_c,9,46,100
1,85800,Note_off_c,9,46,0
1,85800,Note_on_c,9,46,100
1,85920,Note_off_c,9,46,0
1,85920,Note_on_c,9,46,100
1,86040,Note_off_c,9,46,0
1,86040,Note_on_c,9,46,100
1,86160,Note_off_c,9,46,0
1,86160,Note_on_c,9,46,100
1,86280,Note_off_c,9,46,0
1,86280,Note_on_c,9,46,100
1,86400,Note_off_c,9,46,0
1,86400,Note_on_c,9,46,100
1,86520,Note_off_c,9,46,0
1,86520,Note_on_c,9,46,100
1,86640,Note_off_c,9,46,0
1,86640,Note_on_c,9,46,100
1,86760,Note_off_c,9,46,0
1,86760,Note_on_c,9,46,100
1,86880,Note_off_c,9,46,0
1,86880,Note_on_c,9,46,100
1,87000,Note_off_c,9,46,0
1,87000,Note_on_c,9,46,100
1,87120,Note_off_c,9,46,0
1,87120,Note_on_c,9,46,100
1,87240,Note_off_c,9,46,0
1,87240,Note_on_c,9,46,100
1,87360,Note_off_c,9,46,0
1,87360,Note_on_c,9,46,100
1,87480,Note_off_c,9,46,0
1,87480,Note_on_c,9,46,100
1,87600,Note_off_c,9,46,0
1,87600,Note_on_c,9,46,100
1,87720,Note_off_c,9,46,0
1,87720,Note_on_c,9,46,100
1,87840,Note_off_c,9,46,0
1,96120,Note_on_c,9,38,100
1,96240,Note_off_c,9,38,0
1,96240,Note_on_c,9,38,100
1,96360,Note_off_c,9,38,0
1,96360,Note_on_c,9,38,100
1,96480,Note_off_c,9,38,0
1,96480,Note_on_c,9,38,100
1,96600,Note_off_c,9,38,0
1,96600,Note_on_c,9,38,100
1,96720,Note_off_c,9,38,0
1,96720,Note_on_c,9,38,100
1,96840,Note_off_c,9,38,0
1,96840,Note_on_c,9,38,100
1,96960,Note_off_c,9,38,0
1,96960,Note_on_c,9,38,100
1,97080,Note_off_c,9,38,0
1,97080,Note_on_c,9,38,100
1,97200,Note_off_c,9,38,0
1,97200,Note_on_c,9,38,100
1,97320,Note_off_c,9,38,0
1,97320,Note_on_c,9,38,100
1,97440,Note_off_c,9,38,0
1,97440,Note_on_c,9,38,100
1,97560,Note_off_c,9,38,0
1,97560,Note_on_c,9,38,100
1,97680,Note_off_c,9,38,0
1,97680,Note_on_c,9,38,100
1,97800,Note_off_c,9,38,0
1,97800,Note_on_c,9,38,100
1,97920,Note_off_c,9,38,0
1,97920,Note_on_c,9,38,100
1,98040,Note_off_c,9,38,0
1,98040,Note_on_c,9,38,100
1,98160,Note_off_c,9,38,0
1,98160,Note_on_c,9,38,100
1,98280,Note_off_c,9,38,0
1,98280,Note_on_c,9,38,100
1,98400,Note_off_c,9,38,0
1,98400,Note_on_c,9,38,100
1,98520,Note_off_c,9,38,0
1,98520,Note_on_c,9,38,100
1,98640,Note_off_c,9,38,0
1,98640,Note_on_c,9,38,100
1,98760,Note_off_c,9,38,0
1,98760,Note_on_c,9,38,100
1,98880,Note_off_c,9,38,0
1,98880,Note_on_c,9,38,100
1,99000,Note_off_c,9,38,0
1,99000,Note_on_c,9,38,100
1,99120,Note_off_c,9,38,0
1,99120,Note_on_c,9,38,100
1,99240,Note_off_c,9,38,0
1,99240,Note_on_c,9,38,100
1,99360,Note_off_c,9,38,0
1,99360,Note_on_c,9,38,100
1,99480,Note_off_c,9,38,0
1,99480,Note_on_c,9,38,100
1,99600,Note_off_c,9,38,0
1,99600,Note_on_c,9,38,100
1,99720,Note_off_c,9,38,0
1,99720,Note_on_c,9,38,100
1,99840,Note_off_c,9,38,0
1,99840,Note_on_c,9,38,100
1,99960,Note_off_c,9,38,0
1,99960,Note_on_c,9,38,100
1,100080,Note_off_c,9,38,0
1,100080,Note_on_c,9,38,100
1,100200,Note_off_c,9,38,0
1,100200,Note_on_c,9,38,100
1,100320,Note_off_c,9,38,0
1,100320,Note_on_c,9,38,100
1,100440,Note_off_c,9,38,0
1,100440,Note_on_c,9,38,100
1,100560,Note_off_c,9,38,0
1,100560,Note_on_c,9,38,100
1,100680,Note_off_c,9,38,0
1,100680,Note_on_c,9,38,100
1,100800,Note_off_c,9,38,0
1,100800,Note_on_c,9,38,100
1,100920,Note_off_c,9,38,0
1,100920,Note_on_c,9,38,100
1,101040,Note_off_c,9,38,0
1,101040,Note_on_c,9,38,100
1,101160,Note_off_c,9,38,0
1,101160,Note_on_c,9,38,100
1,101280,Note_off_c,9,38,0
1,101280,Note_on_c,9,38,100
1,101400,Note_off_c,9,38,0
1,101400,Note_on_c,9,38,100
1,101520,Note_off_c,9,38,0
1,101520,Note_on_c,9,38,100
1,101640,Note_off_c,9,38,0
1,101640,Note_on_c,9,38,100
1,101760,Note_off_c,9,38,0
1,101760,Note_on_c,9,38,100
1,101880,Note_off_c,9,38,0
1,101880,Note_on_c,9,38,100
1,102000,Note_off_c,9,38,0
1,102000,Note_on_c,9,38,100
1,102120,Note_off_c,9,38,0
1,102120,Note_on_c,9,38,100
1,102240,Note_off_c,9,38,0
1,102240,Note_on_c,9,38,100
1,102360,Note_off_c,9,38,0
1,102360,Note_on_c,9,38,100
1,102480,Note_off_c,9,38,0
1,102480,Note_on_c,9,38,100
1,102600,Note_off_c,9,38,0
1,102600,Note_on_c,9,38,100
1,102720,Note_off_c,9,38,0
1,102720,Note_on_c,9,38,100
1,102840,Note_off_c,9,38,0
1,102840,Note_on_c,9,38,100
1,102960,Note_off_c,9,38,0
1,102960,Note_on_c,9,38,100
1,103080,Note_off_c,9,38,0
1,103080,Note_on_c,9,38,100
1,103200,Note_off_c,9,38,0
1,103200,Note_on_c,9,38,100
1,103320,Note_off_c,9,38,0
1,103320,Note_on_c,9,38,100
1,103440,Note_off_c,9,38,0
1,103440,Note_on_c,9,38,100
1,103560,Note_off_c,9,38,0
1,103560,Note_on_c,9,38,100
1,103680,Note_off_c,9,38,0
1,103680,Note_on_c,9,38,100
1,103800,Note_off_c,9,38,0
1,103800,Note_on_c,9,38,100
1,103920,Note_off_c,9,38,0
1,103920,Note_on_c,9,38,100
1,104040,Note_off_c,9,38,0
1,104040,Note_on_c,9,38,100
1,104160,Note_off_c,9,38,0
1,104160,Note_on_c,9,38,100
1,104280,Note_off_c,9,38,0
1,104280,Note_on_c,9,38,100
1,104400,Note_off_c,9,38,0
1,104400,Note_on_c,9,38,100
1,104520,Note_off_c,9,38,0
1,104520,Note_on_c,9,38,100
1,104640,Note_off_c,9,38,0
1,104640,Note_on_c,9,38,100
1,104760,Note_off_c,9,38,0
1,104760,Note_on_c,9,38,100
1,104880,Note_off_c,9,38,0
1,104880,Note_on_c,9,38,100
1,105000,Note_off_c,9,38,0
1,105000,Note_on_c,9,38,100
1,105120,Note_off_c,9,38,0
1,105120,Note_on_c,9,38,100
1,105240,Note_off_c,9,38,0
1,105240,Note_on_c,9,38,100
1,105360,Note_off_c,9,38,0
1,105360,Note_on_c,9,38,100
1,105480,Note_off_c,9,38,0
1,105480,Note_on_c,9,38,100
1,105600,Note_off_c,9,38,0
1,105600,Note_on_c,9,38,100
1,105720,Note_off_c,9,38,0
1,105720,Note_on_c,9,38,100
1,105840,Note_off_c,9,38,0
1,105840,Note_on_c,9,38,100
1,105960,Note_off_c,9,38,0
1,105960,Note_on_c,9,38,100
1,106080,Note_off_c,9,38,0
1,106080,Note_on_c,9,38,100
1,106200,Note_off_c,9,38,0
1,106200,Note_on_c,9,38,100
1,106320,Note_off_c,9,38,0
1,106320,Note_on_c,9,38,100
1,106440,Note_off_c,9,38,0
1,106440,Note_on_c,9,38,100
1,106560,Note_off_c,9,38,0
1,106560,Note_on_c,9,38,100
1,106680,Note_off_c,9,38,0
1,106680,Note_on_c,9,38,100
1,106800,Note_off_c,9,38,0
1,106800,Note_on_c,9,38,100
1,106920,Note_off_c,9,38,0
1,106920,Note_on_c,9,38,100
1,107040,Note_off_c,9,38,0
1,107040,Note_on_c,9,38,100
1,107160,Note_off_c,9,38,0
1,107160,Note_on_c,9,38,100
1,107280,Note_off_c,9,38,0
1,107280,Note_on_c,9,38,100
1,107400,Note_off_c,9,38,0
1,107400,Note_on_c,9,38,100
1,107520,Note_off_c,9,38,0
1,107520,Note_on_c,9,38,100
1,107640,Note_off_c,9,38,0
1,107640,Note_on_c,9,38,100
1,107760,Note_off_c,9,38,0
1,107760,Note_on_c,9,38,100
1,107880,Note_off_c,9,38,0
1,107880,Note_on_c,9,38,100
1,108000,Note_off_c,9,38,0
1,108000,Note_on_c,9,38,100
1,108120,Note_off_c,9,38,0
1,108120,Note_on_c,9,38,100
1,108240,Note_off_c,9,38,0
1,108240,Note_on_c,9,38,100
1,108360,Note_off_c,9,38,0
1,108360,Note_on_c,9,38,100
1,108480,Note_off_c,9,38,0
1,108480,Note_on_c,9,38,100
1,108600,Note_off_c,9,38,0
1,108600,Note_on_c,9,38,100
1,108720,Note_off_c,9,38,0
1,108720,Note_on_c,9,38,100
1,108840,Note_off_c,9,38,0
1,108840,Note_on_c,9,38,100
1,108960,Note_off_c,9,38,0
1,108960,Note_on_c,9,38,100
1,109080,Note_off_c,9,38,0
1,109080,Note_on_c,9,38,100
1,109200,Note_off_c,9,38,0
1,109200,Note_on_c,9,38,100
1,109320,Note_off_c,9,38,0
1,109320,Note_on_c,9,38,100
1,109440,Note_off_c,9,38,0
1,109440,Note_on_c,9,38,100
1,109560,Note_off_c,9,38,0
1,109560,Note_on_c,9,38,100
1,109680,Note_off_c,9,38,0
1,109680,Note_on_c,9,38,100
1,109800,Note_off_c,9,38,0
1,109800,Note_on_c,9,38,100
1,109920,Note_off_c,9,38,0
1,109920,Note_on_c,9,38,100
1,110040,Note_off_c,9,38,0
1,110040,Note_on_c,9,46,100
1,110040,Note_on_c,9,38,100
1,110160,Note_off_c,9,46,0
1,110160,Note_off_c,9,38,0
1,110160,Note_on_c,9,46,100
1,110160,Note_on_c,9,38,100
1,110280,Note_off_c,9,46,0
1,110280,Note_off_c,9,38,0
1,110280,Note_on_c,9,46,100
1,110280,Note_on_c,9,38,100
1,110400,Note_off_c,9,46,0
1,110400,Note_off_c,9,38,0
1,110400,Note_on_c,9,46,100
1,110400,Note_on_c,9,38,100
1,110520,Note_off_c,9,46,0
1,110520,Note_off_c,9,38,0
1,110520,Note_on_c,9,46,100
1,110520,Note_on_c,9,38,100
1,110640,Note_off_c,9,46,0
1,110640,Note_off_c,9,38,0
1,110640,Note_on_c,9,46,100
1,110640,Note_on_c,9,38,100
1,110760,Note_off_c,9,46,0
1,110760,Note_off_c,9,38,0
1,110760,Note_on_c,9,46,100
1,110760,Note_on_c,9,38,100
1,110880,Note_off_c,9,46,0
1,110880,Note_off_c,9,38,0
1,110880,Note_on_c,9,46,100
1,110880,Note_on_c,9,38,100
1,111000,Note_off_c,9,46,0
1,111000,Note_off_c,9,38,0
1,111000,Note_on_c,9,46,100
1,111000,Note_on_c,9,38,100
1,111120,Note_off_c,9,46,0
1,111120,Note_off_c,9,38,0
1,111120,Note_on_c,9,46,100
1,111120,Note_on_c,9,38,100
1,111240,Note_off_c,9,46,0
1,111240,Note_off_c,9,38,0
1,111240,Note_on_c,9,46,100
1,111240,Note_on_c,9,38,100
1,111360,Note_off_c,9,46,0
1,111360,Note_off_c,9,38,0
1,111360,Note_on_c,9,46,100
1,111360,Note_on_c,9,38,100
1,111480,Note_off_c,9,46,0
1,111480,Note_off_c,9,38,0
1,111480,Note_on_c,9,46,100
1,111480,Note_on_c,9,38,100
1,111600,Note_off_c,9,46,0
1,111600,Note_off_c,9,38,0
1,111600,Note_on_c,9,46,100
1,111600,Note_on_c,9,38,100
1,111720,Note_off_c,9,46,0
1,111720,Note_off_c,9,38,0
1,111720,Note_on_c,9,46,100
1,111720,Note_on_c,9,38,100
1,111840,Note_off_c,9,46,0
1,111840,Note_off_c,9,38,0
1,111840,Note_on_c,9,46,100
1,111840,Note_on_c,9,38,100
1,111960,Note_off_c,9,46,0
1,111960,Note_off_c,9,38,0
1,111960,Note_on_c,9,46,100
1,111960,Note_on_c,9,38,100
1,112080,Note_off_c,9,46,0
1,112080,Note_off_c,9,38,0
1,112080,Note_on_c,9,46,100
1,112080,Note_on_c,9,38,100
1,112200,Note_off_c,9,46,0
1,112200,Note_off_c,9,38,0
1,112200,Note_on_c,9,46,100
1,112200,Note_on_c,9,38,100
1,112320,Note_off_c,9,46,0
1,112320,Note_off_c,9,38,0
1,112320,Note_on_c,9,46,100
1,112320,Note_on_c,9,38,100
1,112440,Note_off_c,9,46,0
1,112440,Note_off_c,9,38,0
1,112440,Note_on_c,9,46,100
1,112440,Note_on_c,9,38,100
1,112560,Note_off_c,9,46,0
1,112560,Note_off_c,9,38,0
1,112560,Note_on_c,9,46,100
1,112560,Note_on_c,9,38,100
1,112680,Note_off_c,9,46,0
1,112680,Note_off_c,9,38,0
1,112680,Note_on_c,9,46,100
1,112680,Note_on_c,9,38,100
1,112800,Note_off_c,9,46,0
1,112800,Note_off_c,9,38,0
1,112800,Note_on_c,9,46,100
1,112800,Note_on_c,9,38,100
1,112920,Note_off_c,9,46,0
1,112920,Note_off_c,9,38,0
1,112920,Note_on_c,9,46,100
1,112920,Note_on_c,9,38,100
1,113040,Note_off_c,9,46,0
1,113040,Note_off_c,9,38,0
1,113040,Note_on_c,9,46,100
1,113040,Note_on_c,9,38,100
1,113160,Note_off_c,9,46,0
1,113160,Note_off_c,9,38,0
1,113160,Note_on_c,9,46,100
1,113160,Note_on_c,9,38,100
1,113280,Note_off_c,9,46,0
1,113280,Note_off_c,9,38,0
1,113280,Note_on_c,9,46,100
1,113280,Note_on_c,9,38,100
1,113400,Note_off_c,9,46,0
1,113400,Note_off_c,9,38,0
1,113400,Note_on_c,9,46,100
1,113400,Note_on_c,9,38,100
1,113520,Note_off_c,9,46,0
1,113520,Note_off_c,9,38,0
1,113520,Note_on_c,9,46,100
1,113520,Note_on_c,9,38,100
1,113640,Note_off_c,9,46,0
1,113640,Note_off_c,9,38,0
1,113640,Note_on_c,9,46,100
1,113640,Note_on_c,9,38,100
1,113760,Note_off_c,9,46,0
1,113760,Note_off_c,9,38,0
1,113760,Note_on_c,9,46,100
1,113760,Note_on_c,9,38,100
1,113880,Note_off_c,9,46,0
1,113880,Note_off_c,9,38,0
1,113880,Note_on_c,9,46,100
1,113880,Note_on_c,9,38,100
1,114000,Note_off_c,9,46,0
1,114000,Note_off_c,9,38,0
1,114000,Note_on_c,9,46,100
1,114000,Note_on_c,9,38,100
1,114120,Note_off_c,9,46,0
1,114120,Note_off_c,9,38,0
1,114120,Note_on_c,9,46,100
1,114120,Note_on_c,9,38,100
1,114240,Note_off_c,9,46,0
1,114240,Note_off_c,9,38,0
1,114240,Note_on_c,9,42,100
1,114240,Note_on_c,9,46,100
1,114360,Note_off_c,9,42,0
1,114360,Note_off_c,9,46,0
1,114360,Note_on_c,9,42,100
1,114360,Note_on_c,9,46,100
1,114480,Note_off_c,9,42,0
1,114480,Note_off_c,9,46,0
1,114480,Note_on_c,9,42,100
1,114480,Note_on_c,9,46,100
1,114600,Note_off_c,9,42,0
1,114600,Note_off_c,9,46,0
1,114600,Note_on_c,9,42,100
1,114600,Note_on_c,9,46,100
1,114720,Note_off_c,9,42,0
1,114720,Note_off_c,9,46,0
1,114720,Note_on_c,9,42,100
1,114720,Note_on_c,9,46,100
1,114840,Note_off_c,9,42,0
1,114840,Note_off_c,9,46,0
1,114840,Note_on_c,9,42,100
1,114840,Note_on_c,9,46,100
1,114840,Note_on_c,9,35,100
1,114960,Note_off_c,9,42,0
1,114960,Note_off_c,9,46,0
1,114960,Note_off_c,9,35,0
1,114960,Note_on_c,9,42,100
1,114960,Note_on_c,9,46,100
1,114960,Note_on_c,9,35,100
1,115080,Note_off_c,9,42,0
1,115080,Note_off_c,9,46,0
1,115080,Note_off_c,9,35,0
1,115080,Note_on_c,9,42,100
1,115080,Note_on_c,9,46,100
1,115080,Note_on_c,9,35,100
1,115200,Note_off_c,9,42,0
1,115200,Note_off_c,9,46,0
1,115200,Note_off_c,9,35,0
1,115200,Note_on_c,9,42,100
1,115200,Note_on_c,9,46,100
1,115200,Note_on_c,9,35,100
1,115320,Note_off_c,9,42,0
1,115320,Note_off_c,9,46,0
1,115320,Note_off_c,9,35,0
1,115320,Note_on_c,9,42,100
1,115320,Note_on_c,9,46,100
1,115320,Note_on_c,9,35,100
1,115440,Note_off_c,9,42,0
1,115440,Note_off_c,9,46,0
1,115440,Note_off_c,9,35,0
1,115440,Note_on_c,9,42,100
1,115440,Note_on_c,9,46,100
1,115440,Note_on_c,9,35,100
1,115560,Note_off_c,9,42,0
1,115560,Note_off_c,9,46,0
1,115560,Note_off_c,9,35,0
1,115560,Note_on_c,9,42,100
1,115560,Note_on_c,9,46,100
1,115560,Note_on_c,9,35,100
1,115680,Note_off_c,9,42,0
1,115680,Note_off_c,9,46,0
1,115680,Note_off_c,9,35,0
1,115680,Note_on_c,9,42,100
1,115680,Note_on_c,9,46,100
1,115680,Note_on_c,9,35,100
1,115800,Note_off_c,9,42,0
1,115800,Note_off_c,9,46,0
1,115800,Note_off_c,9,35,0
1,115800,Note_on_c,9,42,100
1,115800,Note_on_c,9,46,100
1,115800,Note_on_c,9,35,100
1,115920,Note_off_c,9,42,0
1,115920,Note_off_c,9,46,0
1,115920,Note_off_c,9,35,0
1,115920,Note_on_c,9,42,100
1,115920,Note_on_c,9,46,100
1,115920,Note_on_c,9,35,100
1,116040,Note_off_c,9,42,0
1,116040,Note_off_c,9,46,0
1,116040,Note_off_c,9,35,0
1,116040,Note_on_c,9,42,100
1,116040,Note_on_c,9,46,100
1,116040,Note_on_c,9,35,100
1,116160,Note_off_c,9,42,0
1,116160,Note_off_c,9,46,0
1,116160,Note_off_c,9,35,0
1,116160,Note_on_c,9,42,100
1,116160,Note_on_c,9,46,100
1,116160,Note_on_c,9,35,100
1,116280,Note_off_c,9,42,0
1,116280,Note_off_c,9,46,0
1,116280,Note_off_c,9,35,0
1,116280,Note_on_c,9,42,100
1,116280,Note_on_c,9,46,100
1,116280,Note_on_c,9,35,100
1,116400,Note_off_c,9,42,0
1,116400,Note_off_c,9,46,0
1,116400,Note_off_c,9,35,0
1,116400,Note_on_c,9,42,100
1,116400,Note_on_c,9,46,100
1,116400,Note_on_c,9,35,100
1,116520,Note_off_c,9,42,0
1,116520,Note_off_c,9,46,0
1,116520,Note_off_c,9,35,0
1,116520,Note_on_c,9,42,100
1,116520,Note_on_c,9,46,100
1,116520,Note_on_c,9,35,100
1,116640,Note_off_c,9,42,0
1,116640,Note_off_c,9,46,0
1,116640,Note_off_c,9,35,0
1,116640,Note_on_c,9,42,100
1,116640,Note_on_c,9,46,100
1,116640,Note_on_c,9,35,100
1,116760,Note_off_c,9,42,0
1,116760,Note_off_c,9,46,0
1,116760,Note_off_c,9,35,0
1,116760,Note_on_c,9,42,100
1,116760,Note_on_c,9,46,100
1,116760,Note_on_c,9,35,100
1,116880,Note_off_c,9,42,0
1,116880,Note_off_c,9,46,0
1,116880,Note_off_c,9,35,0
1,116880,Note_on_c,9,42,100
1,116880,Note_on_c,9,46,100
1,116880,Note_on_c,9,35,100
1,117000,Note_off_c,9,42,0
1,117000,Note_off_c,9,46,0
1,117000,Note_off_c,9,35,0
1,117000,Note_on_c,9,42,100
1,117000,Note_on_c,9,46,100
1,117000,Note_on_c,9,35,100
1,117120,Note_off_c,9,42,0
1,117120,Note_off_c,9,46,0
1,117120,Note_off_c,9,35,0
1,117120,Note_on_c,9,42,100
1,117120,Note_on_c,9,46,100
1,117120,Note_on_c,9,35,100
1,117240,Note_off_c,9,42,0
1,117240,Note_off_c,9,46,0
1,117240,Note_off_c,9,35,0
1,117240,Note_on_c,9,42,100
1,117240,Note_on_c,9,46,100
1,117240,Note_on_c,9,35,100
1,117360,Note_off_c,9,42,0
1,117360,Note_off_c,9,46,0
1,117360,Note_off_c,9,35,0
1,117360,Note_on_c,9,42,100
1,117360,Note_on_c,9,46,100
1,117360,Note_on_c,9,35,100
1,117480,Note_off_c,9,42,0
1,117480,Note_off_c,9,46,0
1,117480,Note_off_c,9,35,0
1,117480,Note_on_c,9,42,100
1,117480,Note_on_c,9,46,100
1,117480,Note_on_c,9,35,100
1,117600,Note_off_c,9,42,0
1,117600,Note_off_c,9,46,0
1,117600,Note_off_c,9,35,0
1,117600,Note_on_c,9,42,100
1,117600,Note_on_c,9,46,100
1,117600,Note_on_c,9,35,100
1,117720,Note_off_c,9,42,0
1,117720,Note_off_c,9,46,0
1,117720,Note_off_c,9,35,0
1,117720,Note_on_c,9,42,100
1,117720,Note_on_c,9,46,100
1,117720,Note_on_c,9,35,100
1,117840,Note_off_c,9,42,0
1,117840,Note_off_c,9,46,0
1,117840,Note_off_c,9,35,0
1,117840,Note_on_c,9,42,100
1,117840,Note_on_c,9,46,100
1,117840,Note_on_c,9,35,100
1,117960,Note_off_c,9,42,0
1,117960,Note_off_c,9,46,0
1,117960,Note_off_c,9,35,0
1,117960,Note_on_c,9,42,100
1,117960,Note_on_c,9,46,100
1,117960,Note_on_c,9,35,100
1,118080,Note_off_c,9,42,0
1,118080,Note_off_c,9,46,0
1,118080,Note_off_c,9,35,0
1,118080,Note_on_c,9,42,100
1,118080,Note_on_c,9,46,100
1,118080,Note_on_c,9,35,100
1,118200,Note_off_c,9,42,0
1,118200,Note_off_c,9,46,0
1,118200,Note_off_c,9,35,0
1,118200,Note_on_c,9,42,100
1,118200,Note_on_c,9,46,100
1,118200,Note_on_c,9,35,100
1,118320,Note_off_c,9,42,0
1,118320,Note_off_c,9,46,0
1,118320,Note_off_c,9,35,0
1,118320,Note_on_c,9,42,100
1,118320,Note_on_c,9,46,100
1,118320,Note_on_c,9,35,100
1,118440,Note_off_c,9,42,0
1,118440,Note_off_c,9,46,0
1,118440,Note_off_c,9,35,0
1,118440,Note_on_c,9,42,100
1,118440,Note_on_c,9,46,100
1,118440,Note_on_c,9,35,100
1,118560,Note_off_c,9,42,0
1,118560,Note_off_c,9,46,0
1,118560,Note_off_c,9,35,0
1,118560,Note_on_c,9,42,100
1,118560,Note_on_c,9,46,100
1,118560,Note_on_c,9,35,100
1,118680,Note_off_c,9,42,0
1,118680,Note_off_c,9,46,0
1,118680,Note_off_c,9,35,0
1,118680,Note_on_c,9,42,100
1,118680,Note_on_c,9,46,100
1,118680,Note_on_c,9,35,100
1,118800,Note_off_c,9,42,0
1,118800,Note_off_c,9,46,0
1,118800,Note_off_c,9,35,0
1,118800,Note_on_c,9,42,100
1,118800,Note_on_c,9,46,100
1,118800,Note_on_c,9,35,100
1,118920,Note_off_c,9,42,0
1,118920,Note_off_c,9,46,0
1,118920,Note_off_c,9,35,0
1,118920,Note_on_c,9,42,100
1,118920,Note_on_c,9,46,100
1,118920,Note_on_c,9,35,100
1,119040,Note_off_c,9,42,0
1,119040,Note_off_c,9,46,0
1,119040,Note_off_c,9,35,0
1,119040,Note_on_c,9,42,100
1,119040,Note_on_c,9,46,100
1,119040,Note_on_c,9,35,100
1,119160,Note_off_c,9,42,0
1,119160,Note_off_c,9,46,0
1,119160,Note_off_c,9,35,0
1,119160,Note_on_c,9,42,100
1,119160,Note_on_c,9,46,100
1,119160,Note_on_c,9,35,100
1,119280,Note_off_c,9,42,0
1,119280,Note_off_c,9,46,0
1,119280,Note_off_c,9,35,0
1,119280,Note_on_c,9,42,100
1,119280,Note_on_c,9,46,100
1,119280,Note_on_c,9,35,100
1,119400,Note_off_c,9,42,0
1,119400,Note_off_c,9,46,0
1,119400,Note_off_c,9,35,0
1,119400,Note_on_c,9,42,100
1,119400,Note_on_c,9,46,100
1,119400,Note_on_c,9,35,100
1,119520,Note_off_c,9,42,0
1,119520,Note_off_c,9,46,0
1,119520,Note_off_c,9,35,0
1,119520,Note_on_c,9,42,100
1,119520,Note_on_c,9,46,100
1,119520,Note_on_c,9,35,100
1,119640,Note_off_c,9,42,0
1,119640,Note_off_c,9,46,0
1,119640,Note_off_c,9,35,0
1,119640,Note_on_c,9,42,100
1,119640,Note_on_c,9,46,100
1,119640,Note_on_c,9,35,100
1,119760,Note_off_c,9,42,0
1,119760,Note_off_c,9,46,0
1,119760,Note_off_c,9,35,0
1,119760,Note_on_c,9,42,100
1,119760,Note_on_c,9,46,100
1,119760,Note_on_c,9,35,100
1,119880,Note_off_c,9,42,0
1,119880,Note_off_c,9,46,0
1,119880,Note_off_c,9,35,0
1,119880,Note_on_c,9,42,100
1,119880,Note_on_c,9,46,100
1,119880,Note_on_c,9,35,100
1,120000,Note_off_c,9,42,0
1,120000,Note_off_c,9,46,0
1,120000,Note_off_c,9,35,0
1,120000,End_track
0,0,End_of_file
